G04 EAGLE Gerber RS-274X export*
G75*
%MOMM*%
%FSLAX34Y34*%
%LPD*%
%INSilkscreen Bottom*%
%IPPOS*%
%AMOC8*
5,1,8,0,0,1.08239X$1,22.5*%
G01*
%ADD10C,0.076200*%
%ADD11C,0.152400*%
%ADD12C,0.050800*%
%ADD13C,0.127000*%
%ADD14R,1.400000X0.650000*%


D10*
X193281Y99333D02*
X193281Y97244D01*
X193283Y97155D01*
X193289Y97067D01*
X193298Y96979D01*
X193311Y96891D01*
X193328Y96804D01*
X193348Y96718D01*
X193373Y96633D01*
X193400Y96548D01*
X193432Y96465D01*
X193466Y96384D01*
X193505Y96304D01*
X193546Y96226D01*
X193591Y96149D01*
X193639Y96075D01*
X193690Y96002D01*
X193744Y95932D01*
X193802Y95865D01*
X193862Y95799D01*
X193924Y95737D01*
X193990Y95677D01*
X194057Y95619D01*
X194127Y95565D01*
X194200Y95514D01*
X194274Y95466D01*
X194351Y95421D01*
X194429Y95380D01*
X194509Y95341D01*
X194590Y95307D01*
X194673Y95275D01*
X194758Y95248D01*
X194843Y95223D01*
X194929Y95203D01*
X195016Y95186D01*
X195104Y95173D01*
X195192Y95164D01*
X195280Y95158D01*
X195369Y95156D01*
X200591Y95156D01*
X200682Y95158D01*
X200773Y95164D01*
X200864Y95174D01*
X200954Y95188D01*
X201043Y95205D01*
X201131Y95227D01*
X201219Y95253D01*
X201305Y95282D01*
X201390Y95315D01*
X201473Y95352D01*
X201555Y95392D01*
X201635Y95436D01*
X201713Y95483D01*
X201789Y95534D01*
X201862Y95587D01*
X201933Y95644D01*
X202002Y95705D01*
X202067Y95768D01*
X202130Y95833D01*
X202190Y95902D01*
X202248Y95973D01*
X202301Y96046D01*
X202352Y96122D01*
X202399Y96200D01*
X202443Y96280D01*
X202483Y96362D01*
X202520Y96445D01*
X202553Y96530D01*
X202582Y96616D01*
X202608Y96704D01*
X202630Y96792D01*
X202647Y96881D01*
X202661Y96971D01*
X202671Y97062D01*
X202677Y97153D01*
X202679Y97244D01*
X202679Y99333D01*
X202679Y104890D02*
X195369Y102802D01*
X195369Y108023D01*
X193281Y106456D02*
X197458Y106456D01*
X153559Y114821D02*
X151471Y114821D01*
X153559Y114821D02*
X153648Y114823D01*
X153736Y114829D01*
X153824Y114838D01*
X153912Y114851D01*
X153999Y114868D01*
X154085Y114888D01*
X154170Y114913D01*
X154255Y114940D01*
X154338Y114972D01*
X154419Y115006D01*
X154499Y115045D01*
X154577Y115086D01*
X154654Y115131D01*
X154728Y115179D01*
X154801Y115230D01*
X154871Y115284D01*
X154938Y115342D01*
X155004Y115402D01*
X155066Y115464D01*
X155126Y115530D01*
X155184Y115597D01*
X155238Y115667D01*
X155289Y115740D01*
X155337Y115814D01*
X155382Y115891D01*
X155423Y115969D01*
X155462Y116049D01*
X155496Y116130D01*
X155528Y116213D01*
X155555Y116298D01*
X155580Y116383D01*
X155600Y116469D01*
X155617Y116556D01*
X155630Y116644D01*
X155639Y116732D01*
X155645Y116820D01*
X155647Y116909D01*
X155648Y116909D02*
X155648Y122131D01*
X155647Y122131D02*
X155645Y122220D01*
X155639Y122308D01*
X155630Y122396D01*
X155617Y122484D01*
X155600Y122571D01*
X155580Y122657D01*
X155555Y122742D01*
X155528Y122827D01*
X155496Y122910D01*
X155462Y122991D01*
X155423Y123071D01*
X155382Y123149D01*
X155337Y123226D01*
X155289Y123300D01*
X155238Y123373D01*
X155184Y123443D01*
X155126Y123510D01*
X155066Y123576D01*
X155004Y123638D01*
X154938Y123698D01*
X154871Y123756D01*
X154801Y123810D01*
X154728Y123861D01*
X154654Y123909D01*
X154577Y123954D01*
X154499Y123995D01*
X154419Y124034D01*
X154338Y124068D01*
X154255Y124100D01*
X154170Y124127D01*
X154085Y124152D01*
X153999Y124172D01*
X153912Y124189D01*
X153824Y124202D01*
X153736Y124211D01*
X153648Y124217D01*
X153559Y124219D01*
X151471Y124219D01*
X148002Y124219D02*
X148002Y123175D01*
X148002Y124219D02*
X142781Y124219D01*
X145392Y114821D01*
X392771Y83071D02*
X394859Y83071D01*
X394948Y83073D01*
X395036Y83079D01*
X395124Y83088D01*
X395212Y83101D01*
X395299Y83118D01*
X395385Y83138D01*
X395470Y83163D01*
X395555Y83190D01*
X395638Y83222D01*
X395719Y83256D01*
X395799Y83295D01*
X395877Y83336D01*
X395954Y83381D01*
X396028Y83429D01*
X396101Y83480D01*
X396171Y83534D01*
X396238Y83592D01*
X396304Y83652D01*
X396366Y83714D01*
X396426Y83780D01*
X396484Y83847D01*
X396538Y83917D01*
X396589Y83990D01*
X396637Y84064D01*
X396682Y84141D01*
X396723Y84219D01*
X396762Y84299D01*
X396796Y84380D01*
X396828Y84463D01*
X396855Y84548D01*
X396880Y84633D01*
X396900Y84719D01*
X396917Y84806D01*
X396930Y84894D01*
X396939Y84982D01*
X396945Y85070D01*
X396947Y85159D01*
X396948Y85159D02*
X396948Y90381D01*
X396947Y90381D02*
X396945Y90470D01*
X396939Y90558D01*
X396930Y90646D01*
X396917Y90734D01*
X396900Y90821D01*
X396880Y90907D01*
X396855Y90992D01*
X396828Y91077D01*
X396796Y91160D01*
X396762Y91241D01*
X396723Y91321D01*
X396682Y91399D01*
X396637Y91476D01*
X396589Y91550D01*
X396538Y91623D01*
X396484Y91693D01*
X396426Y91760D01*
X396366Y91826D01*
X396304Y91888D01*
X396238Y91948D01*
X396171Y92006D01*
X396101Y92060D01*
X396028Y92111D01*
X395954Y92159D01*
X395877Y92204D01*
X395799Y92245D01*
X395719Y92284D01*
X395638Y92318D01*
X395555Y92350D01*
X395470Y92377D01*
X395385Y92402D01*
X395299Y92422D01*
X395212Y92439D01*
X395124Y92452D01*
X395036Y92461D01*
X394948Y92467D01*
X394859Y92469D01*
X392771Y92469D01*
X389303Y85682D02*
X389301Y85783D01*
X389295Y85884D01*
X389285Y85985D01*
X389272Y86085D01*
X389254Y86185D01*
X389233Y86284D01*
X389207Y86382D01*
X389178Y86479D01*
X389146Y86575D01*
X389109Y86669D01*
X389069Y86762D01*
X389025Y86854D01*
X388978Y86943D01*
X388927Y87031D01*
X388873Y87117D01*
X388816Y87200D01*
X388756Y87282D01*
X388692Y87360D01*
X388626Y87437D01*
X388556Y87510D01*
X388484Y87581D01*
X388409Y87649D01*
X388331Y87714D01*
X388251Y87776D01*
X388169Y87835D01*
X388084Y87891D01*
X387998Y87943D01*
X387909Y87992D01*
X387818Y88038D01*
X387726Y88079D01*
X387632Y88118D01*
X387537Y88152D01*
X387441Y88183D01*
X387343Y88210D01*
X387245Y88234D01*
X387145Y88253D01*
X387045Y88269D01*
X386945Y88281D01*
X386844Y88289D01*
X386743Y88293D01*
X386641Y88293D01*
X386540Y88289D01*
X386439Y88281D01*
X386339Y88269D01*
X386239Y88253D01*
X386139Y88234D01*
X386041Y88210D01*
X385943Y88183D01*
X385847Y88152D01*
X385752Y88118D01*
X385658Y88079D01*
X385566Y88038D01*
X385475Y87992D01*
X385387Y87943D01*
X385300Y87891D01*
X385215Y87835D01*
X385133Y87776D01*
X385053Y87714D01*
X384975Y87649D01*
X384900Y87581D01*
X384828Y87510D01*
X384758Y87437D01*
X384692Y87360D01*
X384628Y87282D01*
X384568Y87200D01*
X384511Y87117D01*
X384457Y87031D01*
X384406Y86943D01*
X384359Y86854D01*
X384315Y86762D01*
X384275Y86669D01*
X384238Y86575D01*
X384206Y86479D01*
X384177Y86382D01*
X384151Y86284D01*
X384130Y86185D01*
X384112Y86085D01*
X384099Y85985D01*
X384089Y85884D01*
X384083Y85783D01*
X384081Y85682D01*
X384083Y85581D01*
X384089Y85480D01*
X384099Y85379D01*
X384112Y85279D01*
X384130Y85179D01*
X384151Y85080D01*
X384177Y84982D01*
X384206Y84885D01*
X384238Y84789D01*
X384275Y84695D01*
X384315Y84602D01*
X384359Y84510D01*
X384406Y84421D01*
X384457Y84333D01*
X384511Y84247D01*
X384568Y84164D01*
X384628Y84082D01*
X384692Y84004D01*
X384758Y83927D01*
X384828Y83854D01*
X384900Y83783D01*
X384975Y83715D01*
X385053Y83650D01*
X385133Y83588D01*
X385215Y83529D01*
X385300Y83473D01*
X385387Y83421D01*
X385475Y83372D01*
X385566Y83326D01*
X385658Y83285D01*
X385752Y83246D01*
X385847Y83212D01*
X385943Y83181D01*
X386041Y83154D01*
X386139Y83130D01*
X386239Y83111D01*
X386339Y83095D01*
X386439Y83083D01*
X386540Y83075D01*
X386641Y83071D01*
X386743Y83071D01*
X386844Y83075D01*
X386945Y83083D01*
X387045Y83095D01*
X387145Y83111D01*
X387245Y83130D01*
X387343Y83154D01*
X387441Y83181D01*
X387537Y83212D01*
X387632Y83246D01*
X387726Y83285D01*
X387818Y83326D01*
X387909Y83372D01*
X387997Y83421D01*
X388084Y83473D01*
X388169Y83529D01*
X388251Y83588D01*
X388331Y83650D01*
X388409Y83715D01*
X388484Y83783D01*
X388556Y83854D01*
X388626Y83927D01*
X388692Y84004D01*
X388756Y84082D01*
X388816Y84164D01*
X388873Y84247D01*
X388927Y84333D01*
X388978Y84421D01*
X389025Y84510D01*
X389069Y84602D01*
X389109Y84695D01*
X389146Y84789D01*
X389178Y84885D01*
X389207Y84982D01*
X389233Y85080D01*
X389254Y85179D01*
X389272Y85279D01*
X389285Y85379D01*
X389295Y85480D01*
X389301Y85581D01*
X389303Y85682D01*
X388780Y90381D02*
X388778Y90471D01*
X388772Y90560D01*
X388763Y90650D01*
X388749Y90739D01*
X388732Y90827D01*
X388711Y90914D01*
X388686Y91001D01*
X388657Y91086D01*
X388625Y91170D01*
X388590Y91252D01*
X388550Y91333D01*
X388508Y91412D01*
X388462Y91489D01*
X388412Y91564D01*
X388360Y91637D01*
X388304Y91708D01*
X388246Y91776D01*
X388184Y91841D01*
X388120Y91904D01*
X388053Y91964D01*
X387984Y92021D01*
X387912Y92075D01*
X387838Y92126D01*
X387762Y92174D01*
X387684Y92218D01*
X387604Y92259D01*
X387522Y92297D01*
X387439Y92331D01*
X387354Y92361D01*
X387268Y92388D01*
X387182Y92411D01*
X387094Y92430D01*
X387005Y92445D01*
X386916Y92457D01*
X386827Y92465D01*
X386737Y92469D01*
X386647Y92469D01*
X386557Y92465D01*
X386468Y92457D01*
X386379Y92445D01*
X386290Y92430D01*
X386202Y92411D01*
X386116Y92388D01*
X386030Y92361D01*
X385945Y92331D01*
X385862Y92297D01*
X385780Y92259D01*
X385700Y92218D01*
X385622Y92174D01*
X385546Y92126D01*
X385472Y92075D01*
X385400Y92021D01*
X385331Y91964D01*
X385264Y91904D01*
X385200Y91841D01*
X385138Y91776D01*
X385080Y91708D01*
X385024Y91637D01*
X384972Y91564D01*
X384922Y91489D01*
X384876Y91412D01*
X384834Y91333D01*
X384794Y91252D01*
X384759Y91170D01*
X384727Y91086D01*
X384698Y91001D01*
X384673Y90914D01*
X384652Y90827D01*
X384635Y90739D01*
X384621Y90650D01*
X384612Y90560D01*
X384606Y90471D01*
X384604Y90381D01*
X384606Y90291D01*
X384612Y90202D01*
X384621Y90112D01*
X384635Y90023D01*
X384652Y89935D01*
X384673Y89848D01*
X384698Y89761D01*
X384727Y89676D01*
X384759Y89592D01*
X384794Y89510D01*
X384834Y89429D01*
X384876Y89350D01*
X384922Y89273D01*
X384972Y89198D01*
X385024Y89125D01*
X385080Y89054D01*
X385138Y88986D01*
X385200Y88921D01*
X385264Y88858D01*
X385331Y88798D01*
X385400Y88741D01*
X385472Y88687D01*
X385546Y88636D01*
X385622Y88588D01*
X385700Y88544D01*
X385780Y88503D01*
X385862Y88465D01*
X385945Y88431D01*
X386030Y88401D01*
X386116Y88374D01*
X386202Y88351D01*
X386290Y88332D01*
X386379Y88317D01*
X386468Y88305D01*
X386557Y88297D01*
X386647Y88293D01*
X386737Y88293D01*
X386827Y88297D01*
X386916Y88305D01*
X387005Y88317D01*
X387094Y88332D01*
X387182Y88351D01*
X387268Y88374D01*
X387354Y88401D01*
X387439Y88431D01*
X387522Y88465D01*
X387604Y88503D01*
X387684Y88544D01*
X387762Y88588D01*
X387838Y88636D01*
X387912Y88687D01*
X387984Y88741D01*
X388053Y88798D01*
X388120Y88858D01*
X388184Y88921D01*
X388246Y88986D01*
X388304Y89054D01*
X388360Y89125D01*
X388412Y89198D01*
X388462Y89273D01*
X388508Y89350D01*
X388550Y89429D01*
X388590Y89510D01*
X388625Y89592D01*
X388657Y89676D01*
X388686Y89761D01*
X388711Y89848D01*
X388732Y89935D01*
X388749Y90023D01*
X388763Y90112D01*
X388772Y90202D01*
X388778Y90291D01*
X388780Y90381D01*
D11*
X180975Y358648D02*
X180973Y358770D01*
X180967Y358892D01*
X180957Y359014D01*
X180944Y359135D01*
X180926Y359256D01*
X180905Y359376D01*
X180879Y359496D01*
X180850Y359614D01*
X180818Y359732D01*
X180781Y359849D01*
X180741Y359964D01*
X180697Y360078D01*
X180649Y360190D01*
X180598Y360301D01*
X180543Y360410D01*
X180485Y360518D01*
X180423Y360623D01*
X180358Y360726D01*
X180290Y360828D01*
X180218Y360927D01*
X180144Y361023D01*
X180066Y361118D01*
X179985Y361209D01*
X179902Y361299D01*
X179816Y361385D01*
X179726Y361468D01*
X179635Y361549D01*
X179540Y361627D01*
X179444Y361701D01*
X179345Y361773D01*
X179243Y361841D01*
X179140Y361906D01*
X179035Y361968D01*
X178927Y362026D01*
X178818Y362081D01*
X178707Y362132D01*
X178595Y362180D01*
X178481Y362224D01*
X178366Y362264D01*
X178249Y362301D01*
X178131Y362333D01*
X178013Y362362D01*
X177893Y362388D01*
X177773Y362409D01*
X177652Y362427D01*
X177531Y362440D01*
X177409Y362450D01*
X177287Y362456D01*
X177165Y362458D01*
X83185Y323342D02*
X83063Y323344D01*
X82941Y323350D01*
X82819Y323360D01*
X82698Y323373D01*
X82577Y323391D01*
X82457Y323412D01*
X82337Y323438D01*
X82219Y323467D01*
X82101Y323499D01*
X81984Y323536D01*
X81869Y323576D01*
X81755Y323620D01*
X81643Y323668D01*
X81532Y323719D01*
X81423Y323774D01*
X81315Y323832D01*
X81210Y323894D01*
X81107Y323959D01*
X81005Y324027D01*
X80906Y324099D01*
X80810Y324173D01*
X80715Y324251D01*
X80624Y324332D01*
X80534Y324415D01*
X80448Y324501D01*
X80365Y324591D01*
X80284Y324682D01*
X80206Y324777D01*
X80132Y324873D01*
X80060Y324972D01*
X79992Y325074D01*
X79927Y325177D01*
X79865Y325282D01*
X79807Y325390D01*
X79752Y325499D01*
X79701Y325610D01*
X79653Y325722D01*
X79609Y325836D01*
X79569Y325951D01*
X79532Y326068D01*
X79500Y326186D01*
X79471Y326304D01*
X79445Y326424D01*
X79424Y326544D01*
X79406Y326665D01*
X79393Y326786D01*
X79383Y326908D01*
X79377Y327030D01*
X79375Y327152D01*
X177165Y323342D02*
X177287Y323344D01*
X177409Y323350D01*
X177531Y323360D01*
X177652Y323373D01*
X177773Y323391D01*
X177893Y323412D01*
X178013Y323438D01*
X178131Y323467D01*
X178249Y323499D01*
X178366Y323536D01*
X178481Y323576D01*
X178595Y323620D01*
X178707Y323668D01*
X178818Y323719D01*
X178927Y323774D01*
X179035Y323832D01*
X179140Y323894D01*
X179243Y323959D01*
X179345Y324027D01*
X179444Y324099D01*
X179540Y324173D01*
X179635Y324251D01*
X179726Y324332D01*
X179816Y324415D01*
X179902Y324501D01*
X179985Y324591D01*
X180066Y324682D01*
X180144Y324777D01*
X180218Y324873D01*
X180290Y324972D01*
X180358Y325074D01*
X180423Y325177D01*
X180485Y325282D01*
X180543Y325390D01*
X180598Y325499D01*
X180649Y325610D01*
X180697Y325722D01*
X180741Y325836D01*
X180781Y325951D01*
X180818Y326068D01*
X180850Y326186D01*
X180879Y326304D01*
X180905Y326424D01*
X180926Y326544D01*
X180944Y326665D01*
X180957Y326786D01*
X180967Y326908D01*
X180973Y327030D01*
X180975Y327152D01*
X83185Y362458D02*
X83063Y362456D01*
X82941Y362450D01*
X82819Y362440D01*
X82698Y362427D01*
X82577Y362409D01*
X82457Y362388D01*
X82337Y362362D01*
X82219Y362333D01*
X82101Y362301D01*
X81984Y362264D01*
X81869Y362224D01*
X81755Y362180D01*
X81643Y362132D01*
X81532Y362081D01*
X81423Y362026D01*
X81315Y361968D01*
X81210Y361906D01*
X81107Y361841D01*
X81005Y361773D01*
X80906Y361701D01*
X80810Y361627D01*
X80715Y361549D01*
X80624Y361468D01*
X80534Y361385D01*
X80448Y361299D01*
X80365Y361209D01*
X80284Y361118D01*
X80206Y361023D01*
X80132Y360927D01*
X80060Y360828D01*
X79992Y360726D01*
X79927Y360623D01*
X79865Y360518D01*
X79807Y360410D01*
X79752Y360301D01*
X79701Y360190D01*
X79653Y360078D01*
X79609Y359964D01*
X79569Y359849D01*
X79532Y359732D01*
X79500Y359614D01*
X79471Y359496D01*
X79445Y359376D01*
X79424Y359256D01*
X79406Y359135D01*
X79393Y359014D01*
X79383Y358892D01*
X79377Y358770D01*
X79375Y358648D01*
X180975Y358648D02*
X180975Y327152D01*
X79375Y327152D02*
X79375Y337820D01*
X79375Y347980D01*
X79375Y358648D01*
X79375Y347980D02*
X79516Y347978D01*
X79657Y347972D01*
X79798Y347962D01*
X79939Y347949D01*
X80079Y347931D01*
X80218Y347909D01*
X80357Y347884D01*
X80496Y347855D01*
X80633Y347822D01*
X80769Y347785D01*
X80904Y347744D01*
X81039Y347700D01*
X81171Y347652D01*
X81303Y347600D01*
X81433Y347545D01*
X81561Y347486D01*
X81688Y347423D01*
X81812Y347357D01*
X81935Y347288D01*
X82056Y347215D01*
X82175Y347139D01*
X82292Y347059D01*
X82406Y346976D01*
X82519Y346891D01*
X82628Y346802D01*
X82736Y346710D01*
X82840Y346615D01*
X82942Y346517D01*
X83041Y346416D01*
X83138Y346313D01*
X83231Y346207D01*
X83321Y346099D01*
X83409Y345988D01*
X83493Y345875D01*
X83574Y345759D01*
X83652Y345641D01*
X83727Y345521D01*
X83798Y345399D01*
X83866Y345275D01*
X83930Y345149D01*
X83991Y345022D01*
X84048Y344893D01*
X84101Y344762D01*
X84151Y344630D01*
X84198Y344497D01*
X84240Y344362D01*
X84279Y344226D01*
X84314Y344089D01*
X84345Y343952D01*
X84372Y343813D01*
X84396Y343674D01*
X84415Y343534D01*
X84431Y343394D01*
X84443Y343253D01*
X84451Y343112D01*
X84455Y342971D01*
X84455Y342829D01*
X84451Y342688D01*
X84443Y342547D01*
X84431Y342406D01*
X84415Y342266D01*
X84396Y342126D01*
X84372Y341987D01*
X84345Y341848D01*
X84314Y341711D01*
X84279Y341574D01*
X84240Y341438D01*
X84198Y341303D01*
X84151Y341170D01*
X84101Y341038D01*
X84048Y340907D01*
X83991Y340778D01*
X83930Y340651D01*
X83866Y340525D01*
X83798Y340401D01*
X83727Y340279D01*
X83652Y340159D01*
X83574Y340041D01*
X83493Y339925D01*
X83409Y339812D01*
X83321Y339701D01*
X83231Y339593D01*
X83138Y339487D01*
X83041Y339384D01*
X82942Y339283D01*
X82840Y339185D01*
X82736Y339090D01*
X82628Y338998D01*
X82519Y338909D01*
X82406Y338824D01*
X82292Y338741D01*
X82175Y338661D01*
X82056Y338585D01*
X81935Y338512D01*
X81812Y338443D01*
X81688Y338377D01*
X81561Y338314D01*
X81433Y338255D01*
X81303Y338200D01*
X81171Y338148D01*
X81039Y338100D01*
X80904Y338056D01*
X80769Y338015D01*
X80633Y337978D01*
X80496Y337945D01*
X80357Y337916D01*
X80218Y337891D01*
X80079Y337869D01*
X79939Y337851D01*
X79798Y337838D01*
X79657Y337828D01*
X79516Y337822D01*
X79375Y337820D01*
D12*
X79375Y358902D02*
X180975Y358902D01*
D13*
X74930Y339471D02*
X63500Y339471D01*
X63500Y338201D02*
X63500Y340741D01*
X74930Y340741D02*
X74930Y338201D01*
X63500Y347943D02*
X63500Y350483D01*
X63500Y347943D02*
X63502Y347843D01*
X63508Y347744D01*
X63518Y347644D01*
X63531Y347546D01*
X63549Y347447D01*
X63570Y347350D01*
X63595Y347254D01*
X63624Y347158D01*
X63657Y347064D01*
X63693Y346971D01*
X63733Y346880D01*
X63777Y346790D01*
X63824Y346702D01*
X63874Y346616D01*
X63928Y346532D01*
X63985Y346450D01*
X64045Y346371D01*
X64109Y346293D01*
X64175Y346219D01*
X64244Y346147D01*
X64316Y346078D01*
X64390Y346012D01*
X64468Y345948D01*
X64547Y345888D01*
X64629Y345831D01*
X64713Y345777D01*
X64799Y345727D01*
X64887Y345680D01*
X64977Y345636D01*
X65068Y345596D01*
X65161Y345560D01*
X65255Y345527D01*
X65351Y345498D01*
X65447Y345473D01*
X65544Y345452D01*
X65643Y345434D01*
X65741Y345421D01*
X65841Y345411D01*
X65940Y345405D01*
X66040Y345403D01*
X72390Y345403D01*
X72490Y345405D01*
X72589Y345411D01*
X72689Y345421D01*
X72787Y345434D01*
X72886Y345452D01*
X72983Y345473D01*
X73079Y345498D01*
X73175Y345527D01*
X73269Y345560D01*
X73362Y345596D01*
X73453Y345636D01*
X73543Y345680D01*
X73631Y345727D01*
X73717Y345777D01*
X73801Y345831D01*
X73883Y345888D01*
X73962Y345948D01*
X74040Y346012D01*
X74114Y346078D01*
X74186Y346147D01*
X74255Y346219D01*
X74321Y346293D01*
X74385Y346371D01*
X74445Y346450D01*
X74502Y346532D01*
X74556Y346616D01*
X74606Y346702D01*
X74653Y346790D01*
X74697Y346880D01*
X74737Y346971D01*
X74773Y347064D01*
X74806Y347158D01*
X74835Y347254D01*
X74860Y347350D01*
X74881Y347447D01*
X74899Y347546D01*
X74912Y347644D01*
X74922Y347744D01*
X74928Y347843D01*
X74930Y347943D01*
X74930Y350483D01*
X72390Y354965D02*
X74930Y358140D01*
X63500Y358140D01*
X63500Y354965D02*
X63500Y361315D01*
D11*
X405765Y362458D02*
X405887Y362456D01*
X406009Y362450D01*
X406131Y362440D01*
X406252Y362427D01*
X406373Y362409D01*
X406493Y362388D01*
X406613Y362362D01*
X406731Y362333D01*
X406849Y362301D01*
X406966Y362264D01*
X407081Y362224D01*
X407195Y362180D01*
X407307Y362132D01*
X407418Y362081D01*
X407527Y362026D01*
X407635Y361968D01*
X407740Y361906D01*
X407843Y361841D01*
X407945Y361773D01*
X408044Y361701D01*
X408140Y361627D01*
X408235Y361549D01*
X408326Y361468D01*
X408416Y361385D01*
X408502Y361299D01*
X408585Y361209D01*
X408666Y361118D01*
X408744Y361023D01*
X408818Y360927D01*
X408890Y360828D01*
X408958Y360726D01*
X409023Y360623D01*
X409085Y360518D01*
X409143Y360410D01*
X409198Y360301D01*
X409249Y360190D01*
X409297Y360078D01*
X409341Y359964D01*
X409381Y359849D01*
X409418Y359732D01*
X409450Y359614D01*
X409479Y359496D01*
X409505Y359376D01*
X409526Y359256D01*
X409544Y359135D01*
X409557Y359014D01*
X409567Y358892D01*
X409573Y358770D01*
X409575Y358648D01*
X311785Y323342D02*
X311663Y323344D01*
X311541Y323350D01*
X311419Y323360D01*
X311298Y323373D01*
X311177Y323391D01*
X311057Y323412D01*
X310937Y323438D01*
X310819Y323467D01*
X310701Y323499D01*
X310584Y323536D01*
X310469Y323576D01*
X310355Y323620D01*
X310243Y323668D01*
X310132Y323719D01*
X310023Y323774D01*
X309915Y323832D01*
X309810Y323894D01*
X309707Y323959D01*
X309605Y324027D01*
X309506Y324099D01*
X309410Y324173D01*
X309315Y324251D01*
X309224Y324332D01*
X309134Y324415D01*
X309048Y324501D01*
X308965Y324591D01*
X308884Y324682D01*
X308806Y324777D01*
X308732Y324873D01*
X308660Y324972D01*
X308592Y325074D01*
X308527Y325177D01*
X308465Y325282D01*
X308407Y325390D01*
X308352Y325499D01*
X308301Y325610D01*
X308253Y325722D01*
X308209Y325836D01*
X308169Y325951D01*
X308132Y326068D01*
X308100Y326186D01*
X308071Y326304D01*
X308045Y326424D01*
X308024Y326544D01*
X308006Y326665D01*
X307993Y326786D01*
X307983Y326908D01*
X307977Y327030D01*
X307975Y327152D01*
X405765Y323342D02*
X405887Y323344D01*
X406009Y323350D01*
X406131Y323360D01*
X406252Y323373D01*
X406373Y323391D01*
X406493Y323412D01*
X406613Y323438D01*
X406731Y323467D01*
X406849Y323499D01*
X406966Y323536D01*
X407081Y323576D01*
X407195Y323620D01*
X407307Y323668D01*
X407418Y323719D01*
X407527Y323774D01*
X407635Y323832D01*
X407740Y323894D01*
X407843Y323959D01*
X407945Y324027D01*
X408044Y324099D01*
X408140Y324173D01*
X408235Y324251D01*
X408326Y324332D01*
X408416Y324415D01*
X408502Y324501D01*
X408585Y324591D01*
X408666Y324682D01*
X408744Y324777D01*
X408818Y324873D01*
X408890Y324972D01*
X408958Y325074D01*
X409023Y325177D01*
X409085Y325282D01*
X409143Y325390D01*
X409198Y325499D01*
X409249Y325610D01*
X409297Y325722D01*
X409341Y325836D01*
X409381Y325951D01*
X409418Y326068D01*
X409450Y326186D01*
X409479Y326304D01*
X409505Y326424D01*
X409526Y326544D01*
X409544Y326665D01*
X409557Y326786D01*
X409567Y326908D01*
X409573Y327030D01*
X409575Y327152D01*
X311785Y362458D02*
X311663Y362456D01*
X311541Y362450D01*
X311419Y362440D01*
X311298Y362427D01*
X311177Y362409D01*
X311057Y362388D01*
X310937Y362362D01*
X310819Y362333D01*
X310701Y362301D01*
X310584Y362264D01*
X310469Y362224D01*
X310355Y362180D01*
X310243Y362132D01*
X310132Y362081D01*
X310023Y362026D01*
X309915Y361968D01*
X309810Y361906D01*
X309707Y361841D01*
X309605Y361773D01*
X309506Y361701D01*
X309410Y361627D01*
X309315Y361549D01*
X309224Y361468D01*
X309134Y361385D01*
X309048Y361299D01*
X308965Y361209D01*
X308884Y361118D01*
X308806Y361023D01*
X308732Y360927D01*
X308660Y360828D01*
X308592Y360726D01*
X308527Y360623D01*
X308465Y360518D01*
X308407Y360410D01*
X308352Y360301D01*
X308301Y360190D01*
X308253Y360078D01*
X308209Y359964D01*
X308169Y359849D01*
X308132Y359732D01*
X308100Y359614D01*
X308071Y359496D01*
X308045Y359376D01*
X308024Y359256D01*
X308006Y359135D01*
X307993Y359014D01*
X307983Y358892D01*
X307977Y358770D01*
X307975Y358648D01*
X409575Y358648D02*
X409575Y327152D01*
X307975Y327152D02*
X307975Y337820D01*
X307975Y347980D01*
X307975Y358648D01*
X307975Y347980D02*
X308116Y347978D01*
X308257Y347972D01*
X308398Y347962D01*
X308539Y347949D01*
X308679Y347931D01*
X308818Y347909D01*
X308957Y347884D01*
X309096Y347855D01*
X309233Y347822D01*
X309369Y347785D01*
X309504Y347744D01*
X309639Y347700D01*
X309771Y347652D01*
X309903Y347600D01*
X310033Y347545D01*
X310161Y347486D01*
X310288Y347423D01*
X310412Y347357D01*
X310535Y347288D01*
X310656Y347215D01*
X310775Y347139D01*
X310892Y347059D01*
X311006Y346976D01*
X311119Y346891D01*
X311228Y346802D01*
X311336Y346710D01*
X311440Y346615D01*
X311542Y346517D01*
X311641Y346416D01*
X311738Y346313D01*
X311831Y346207D01*
X311921Y346099D01*
X312009Y345988D01*
X312093Y345875D01*
X312174Y345759D01*
X312252Y345641D01*
X312327Y345521D01*
X312398Y345399D01*
X312466Y345275D01*
X312530Y345149D01*
X312591Y345022D01*
X312648Y344893D01*
X312701Y344762D01*
X312751Y344630D01*
X312798Y344497D01*
X312840Y344362D01*
X312879Y344226D01*
X312914Y344089D01*
X312945Y343952D01*
X312972Y343813D01*
X312996Y343674D01*
X313015Y343534D01*
X313031Y343394D01*
X313043Y343253D01*
X313051Y343112D01*
X313055Y342971D01*
X313055Y342829D01*
X313051Y342688D01*
X313043Y342547D01*
X313031Y342406D01*
X313015Y342266D01*
X312996Y342126D01*
X312972Y341987D01*
X312945Y341848D01*
X312914Y341711D01*
X312879Y341574D01*
X312840Y341438D01*
X312798Y341303D01*
X312751Y341170D01*
X312701Y341038D01*
X312648Y340907D01*
X312591Y340778D01*
X312530Y340651D01*
X312466Y340525D01*
X312398Y340401D01*
X312327Y340279D01*
X312252Y340159D01*
X312174Y340041D01*
X312093Y339925D01*
X312009Y339812D01*
X311921Y339701D01*
X311831Y339593D01*
X311738Y339487D01*
X311641Y339384D01*
X311542Y339283D01*
X311440Y339185D01*
X311336Y339090D01*
X311228Y338998D01*
X311119Y338909D01*
X311006Y338824D01*
X310892Y338741D01*
X310775Y338661D01*
X310656Y338585D01*
X310535Y338512D01*
X310412Y338443D01*
X310288Y338377D01*
X310161Y338314D01*
X310033Y338255D01*
X309903Y338200D01*
X309771Y338148D01*
X309639Y338100D01*
X309504Y338056D01*
X309369Y338015D01*
X309233Y337978D01*
X309096Y337945D01*
X308957Y337916D01*
X308818Y337891D01*
X308679Y337869D01*
X308539Y337851D01*
X308398Y337838D01*
X308257Y337828D01*
X308116Y337822D01*
X307975Y337820D01*
D12*
X307975Y358902D02*
X409575Y358902D01*
D13*
X303530Y339471D02*
X292100Y339471D01*
X292100Y338201D02*
X292100Y340741D01*
X303530Y340741D02*
X303530Y338201D01*
X292100Y347943D02*
X292100Y350483D01*
X292100Y347943D02*
X292102Y347843D01*
X292108Y347744D01*
X292118Y347644D01*
X292131Y347546D01*
X292149Y347447D01*
X292170Y347350D01*
X292195Y347254D01*
X292224Y347158D01*
X292257Y347064D01*
X292293Y346971D01*
X292333Y346880D01*
X292377Y346790D01*
X292424Y346702D01*
X292474Y346616D01*
X292528Y346532D01*
X292585Y346450D01*
X292645Y346371D01*
X292709Y346293D01*
X292775Y346219D01*
X292844Y346147D01*
X292916Y346078D01*
X292990Y346012D01*
X293068Y345948D01*
X293147Y345888D01*
X293229Y345831D01*
X293313Y345777D01*
X293399Y345727D01*
X293487Y345680D01*
X293577Y345636D01*
X293668Y345596D01*
X293761Y345560D01*
X293855Y345527D01*
X293951Y345498D01*
X294047Y345473D01*
X294144Y345452D01*
X294243Y345434D01*
X294341Y345421D01*
X294441Y345411D01*
X294540Y345405D01*
X294640Y345403D01*
X300990Y345403D01*
X301090Y345405D01*
X301189Y345411D01*
X301289Y345421D01*
X301387Y345434D01*
X301486Y345452D01*
X301583Y345473D01*
X301679Y345498D01*
X301775Y345527D01*
X301869Y345560D01*
X301962Y345596D01*
X302053Y345636D01*
X302143Y345680D01*
X302231Y345727D01*
X302317Y345777D01*
X302401Y345831D01*
X302483Y345888D01*
X302562Y345948D01*
X302640Y346012D01*
X302714Y346078D01*
X302786Y346147D01*
X302855Y346219D01*
X302921Y346293D01*
X302985Y346371D01*
X303045Y346450D01*
X303102Y346532D01*
X303156Y346616D01*
X303206Y346702D01*
X303253Y346790D01*
X303297Y346880D01*
X303337Y346971D01*
X303373Y347064D01*
X303406Y347158D01*
X303435Y347254D01*
X303460Y347350D01*
X303481Y347447D01*
X303499Y347546D01*
X303512Y347644D01*
X303522Y347744D01*
X303528Y347843D01*
X303530Y347943D01*
X303530Y350483D01*
X303531Y358458D02*
X303529Y358562D01*
X303523Y358667D01*
X303514Y358771D01*
X303501Y358874D01*
X303483Y358977D01*
X303463Y359079D01*
X303438Y359181D01*
X303410Y359281D01*
X303378Y359381D01*
X303342Y359479D01*
X303303Y359576D01*
X303261Y359671D01*
X303215Y359765D01*
X303165Y359857D01*
X303113Y359947D01*
X303057Y360035D01*
X302997Y360121D01*
X302935Y360205D01*
X302870Y360286D01*
X302802Y360365D01*
X302730Y360442D01*
X302657Y360515D01*
X302580Y360587D01*
X302501Y360655D01*
X302420Y360720D01*
X302336Y360782D01*
X302250Y360842D01*
X302162Y360898D01*
X302072Y360950D01*
X301980Y361000D01*
X301886Y361046D01*
X301791Y361088D01*
X301694Y361127D01*
X301596Y361163D01*
X301496Y361195D01*
X301396Y361223D01*
X301294Y361248D01*
X301192Y361268D01*
X301089Y361286D01*
X300986Y361299D01*
X300882Y361308D01*
X300777Y361314D01*
X300673Y361316D01*
X303530Y358458D02*
X303528Y358340D01*
X303522Y358221D01*
X303513Y358103D01*
X303500Y357986D01*
X303482Y357869D01*
X303462Y357752D01*
X303437Y357636D01*
X303409Y357521D01*
X303376Y357408D01*
X303341Y357295D01*
X303301Y357183D01*
X303259Y357073D01*
X303212Y356964D01*
X303162Y356856D01*
X303109Y356751D01*
X303052Y356647D01*
X302992Y356545D01*
X302929Y356445D01*
X302862Y356347D01*
X302793Y356251D01*
X302720Y356158D01*
X302644Y356067D01*
X302566Y355978D01*
X302484Y355892D01*
X302400Y355809D01*
X302314Y355728D01*
X302224Y355651D01*
X302133Y355576D01*
X302039Y355504D01*
X301942Y355435D01*
X301844Y355370D01*
X301743Y355307D01*
X301640Y355248D01*
X301536Y355192D01*
X301430Y355140D01*
X301322Y355091D01*
X301213Y355046D01*
X301102Y355004D01*
X300990Y354966D01*
X298451Y360363D02*
X298526Y360439D01*
X298605Y360514D01*
X298686Y360585D01*
X298770Y360654D01*
X298856Y360719D01*
X298944Y360781D01*
X299034Y360841D01*
X299126Y360897D01*
X299221Y360950D01*
X299317Y360999D01*
X299415Y361045D01*
X299514Y361088D01*
X299615Y361127D01*
X299717Y361162D01*
X299820Y361194D01*
X299924Y361222D01*
X300029Y361247D01*
X300136Y361268D01*
X300242Y361285D01*
X300349Y361298D01*
X300457Y361307D01*
X300565Y361313D01*
X300673Y361315D01*
X298450Y360363D02*
X292100Y354965D01*
X292100Y361315D01*
D11*
X634365Y362458D02*
X634487Y362456D01*
X634609Y362450D01*
X634731Y362440D01*
X634852Y362427D01*
X634973Y362409D01*
X635093Y362388D01*
X635213Y362362D01*
X635331Y362333D01*
X635449Y362301D01*
X635566Y362264D01*
X635681Y362224D01*
X635795Y362180D01*
X635907Y362132D01*
X636018Y362081D01*
X636127Y362026D01*
X636235Y361968D01*
X636340Y361906D01*
X636443Y361841D01*
X636545Y361773D01*
X636644Y361701D01*
X636740Y361627D01*
X636835Y361549D01*
X636926Y361468D01*
X637016Y361385D01*
X637102Y361299D01*
X637185Y361209D01*
X637266Y361118D01*
X637344Y361023D01*
X637418Y360927D01*
X637490Y360828D01*
X637558Y360726D01*
X637623Y360623D01*
X637685Y360518D01*
X637743Y360410D01*
X637798Y360301D01*
X637849Y360190D01*
X637897Y360078D01*
X637941Y359964D01*
X637981Y359849D01*
X638018Y359732D01*
X638050Y359614D01*
X638079Y359496D01*
X638105Y359376D01*
X638126Y359256D01*
X638144Y359135D01*
X638157Y359014D01*
X638167Y358892D01*
X638173Y358770D01*
X638175Y358648D01*
X540385Y323342D02*
X540263Y323344D01*
X540141Y323350D01*
X540019Y323360D01*
X539898Y323373D01*
X539777Y323391D01*
X539657Y323412D01*
X539537Y323438D01*
X539419Y323467D01*
X539301Y323499D01*
X539184Y323536D01*
X539069Y323576D01*
X538955Y323620D01*
X538843Y323668D01*
X538732Y323719D01*
X538623Y323774D01*
X538515Y323832D01*
X538410Y323894D01*
X538307Y323959D01*
X538205Y324027D01*
X538106Y324099D01*
X538010Y324173D01*
X537915Y324251D01*
X537824Y324332D01*
X537734Y324415D01*
X537648Y324501D01*
X537565Y324591D01*
X537484Y324682D01*
X537406Y324777D01*
X537332Y324873D01*
X537260Y324972D01*
X537192Y325074D01*
X537127Y325177D01*
X537065Y325282D01*
X537007Y325390D01*
X536952Y325499D01*
X536901Y325610D01*
X536853Y325722D01*
X536809Y325836D01*
X536769Y325951D01*
X536732Y326068D01*
X536700Y326186D01*
X536671Y326304D01*
X536645Y326424D01*
X536624Y326544D01*
X536606Y326665D01*
X536593Y326786D01*
X536583Y326908D01*
X536577Y327030D01*
X536575Y327152D01*
X634365Y323342D02*
X634487Y323344D01*
X634609Y323350D01*
X634731Y323360D01*
X634852Y323373D01*
X634973Y323391D01*
X635093Y323412D01*
X635213Y323438D01*
X635331Y323467D01*
X635449Y323499D01*
X635566Y323536D01*
X635681Y323576D01*
X635795Y323620D01*
X635907Y323668D01*
X636018Y323719D01*
X636127Y323774D01*
X636235Y323832D01*
X636340Y323894D01*
X636443Y323959D01*
X636545Y324027D01*
X636644Y324099D01*
X636740Y324173D01*
X636835Y324251D01*
X636926Y324332D01*
X637016Y324415D01*
X637102Y324501D01*
X637185Y324591D01*
X637266Y324682D01*
X637344Y324777D01*
X637418Y324873D01*
X637490Y324972D01*
X637558Y325074D01*
X637623Y325177D01*
X637685Y325282D01*
X637743Y325390D01*
X637798Y325499D01*
X637849Y325610D01*
X637897Y325722D01*
X637941Y325836D01*
X637981Y325951D01*
X638018Y326068D01*
X638050Y326186D01*
X638079Y326304D01*
X638105Y326424D01*
X638126Y326544D01*
X638144Y326665D01*
X638157Y326786D01*
X638167Y326908D01*
X638173Y327030D01*
X638175Y327152D01*
X540385Y362458D02*
X540263Y362456D01*
X540141Y362450D01*
X540019Y362440D01*
X539898Y362427D01*
X539777Y362409D01*
X539657Y362388D01*
X539537Y362362D01*
X539419Y362333D01*
X539301Y362301D01*
X539184Y362264D01*
X539069Y362224D01*
X538955Y362180D01*
X538843Y362132D01*
X538732Y362081D01*
X538623Y362026D01*
X538515Y361968D01*
X538410Y361906D01*
X538307Y361841D01*
X538205Y361773D01*
X538106Y361701D01*
X538010Y361627D01*
X537915Y361549D01*
X537824Y361468D01*
X537734Y361385D01*
X537648Y361299D01*
X537565Y361209D01*
X537484Y361118D01*
X537406Y361023D01*
X537332Y360927D01*
X537260Y360828D01*
X537192Y360726D01*
X537127Y360623D01*
X537065Y360518D01*
X537007Y360410D01*
X536952Y360301D01*
X536901Y360190D01*
X536853Y360078D01*
X536809Y359964D01*
X536769Y359849D01*
X536732Y359732D01*
X536700Y359614D01*
X536671Y359496D01*
X536645Y359376D01*
X536624Y359256D01*
X536606Y359135D01*
X536593Y359014D01*
X536583Y358892D01*
X536577Y358770D01*
X536575Y358648D01*
X638175Y358648D02*
X638175Y327152D01*
X536575Y327152D02*
X536575Y337820D01*
X536575Y347980D01*
X536575Y358648D01*
X536575Y347980D02*
X536716Y347978D01*
X536857Y347972D01*
X536998Y347962D01*
X537139Y347949D01*
X537279Y347931D01*
X537418Y347909D01*
X537557Y347884D01*
X537696Y347855D01*
X537833Y347822D01*
X537969Y347785D01*
X538104Y347744D01*
X538239Y347700D01*
X538371Y347652D01*
X538503Y347600D01*
X538633Y347545D01*
X538761Y347486D01*
X538888Y347423D01*
X539012Y347357D01*
X539135Y347288D01*
X539256Y347215D01*
X539375Y347139D01*
X539492Y347059D01*
X539606Y346976D01*
X539719Y346891D01*
X539828Y346802D01*
X539936Y346710D01*
X540040Y346615D01*
X540142Y346517D01*
X540241Y346416D01*
X540338Y346313D01*
X540431Y346207D01*
X540521Y346099D01*
X540609Y345988D01*
X540693Y345875D01*
X540774Y345759D01*
X540852Y345641D01*
X540927Y345521D01*
X540998Y345399D01*
X541066Y345275D01*
X541130Y345149D01*
X541191Y345022D01*
X541248Y344893D01*
X541301Y344762D01*
X541351Y344630D01*
X541398Y344497D01*
X541440Y344362D01*
X541479Y344226D01*
X541514Y344089D01*
X541545Y343952D01*
X541572Y343813D01*
X541596Y343674D01*
X541615Y343534D01*
X541631Y343394D01*
X541643Y343253D01*
X541651Y343112D01*
X541655Y342971D01*
X541655Y342829D01*
X541651Y342688D01*
X541643Y342547D01*
X541631Y342406D01*
X541615Y342266D01*
X541596Y342126D01*
X541572Y341987D01*
X541545Y341848D01*
X541514Y341711D01*
X541479Y341574D01*
X541440Y341438D01*
X541398Y341303D01*
X541351Y341170D01*
X541301Y341038D01*
X541248Y340907D01*
X541191Y340778D01*
X541130Y340651D01*
X541066Y340525D01*
X540998Y340401D01*
X540927Y340279D01*
X540852Y340159D01*
X540774Y340041D01*
X540693Y339925D01*
X540609Y339812D01*
X540521Y339701D01*
X540431Y339593D01*
X540338Y339487D01*
X540241Y339384D01*
X540142Y339283D01*
X540040Y339185D01*
X539936Y339090D01*
X539828Y338998D01*
X539719Y338909D01*
X539606Y338824D01*
X539492Y338741D01*
X539375Y338661D01*
X539256Y338585D01*
X539135Y338512D01*
X539012Y338443D01*
X538888Y338377D01*
X538761Y338314D01*
X538633Y338255D01*
X538503Y338200D01*
X538371Y338148D01*
X538239Y338100D01*
X538104Y338056D01*
X537969Y338015D01*
X537833Y337978D01*
X537696Y337945D01*
X537557Y337916D01*
X537418Y337891D01*
X537279Y337869D01*
X537139Y337851D01*
X536998Y337838D01*
X536857Y337828D01*
X536716Y337822D01*
X536575Y337820D01*
D12*
X536575Y358902D02*
X638175Y358902D01*
D13*
X532130Y339471D02*
X520700Y339471D01*
X520700Y338201D02*
X520700Y340741D01*
X532130Y340741D02*
X532130Y338201D01*
X520700Y347943D02*
X520700Y350483D01*
X520700Y347943D02*
X520702Y347843D01*
X520708Y347744D01*
X520718Y347644D01*
X520731Y347546D01*
X520749Y347447D01*
X520770Y347350D01*
X520795Y347254D01*
X520824Y347158D01*
X520857Y347064D01*
X520893Y346971D01*
X520933Y346880D01*
X520977Y346790D01*
X521024Y346702D01*
X521074Y346616D01*
X521128Y346532D01*
X521185Y346450D01*
X521245Y346371D01*
X521309Y346293D01*
X521375Y346219D01*
X521444Y346147D01*
X521516Y346078D01*
X521590Y346012D01*
X521668Y345948D01*
X521747Y345888D01*
X521829Y345831D01*
X521913Y345777D01*
X521999Y345727D01*
X522087Y345680D01*
X522177Y345636D01*
X522268Y345596D01*
X522361Y345560D01*
X522455Y345527D01*
X522551Y345498D01*
X522647Y345473D01*
X522744Y345452D01*
X522843Y345434D01*
X522941Y345421D01*
X523041Y345411D01*
X523140Y345405D01*
X523240Y345403D01*
X529590Y345403D01*
X529690Y345405D01*
X529789Y345411D01*
X529889Y345421D01*
X529987Y345434D01*
X530086Y345452D01*
X530183Y345473D01*
X530279Y345498D01*
X530375Y345527D01*
X530469Y345560D01*
X530562Y345596D01*
X530653Y345636D01*
X530743Y345680D01*
X530831Y345727D01*
X530917Y345777D01*
X531001Y345831D01*
X531083Y345888D01*
X531162Y345948D01*
X531240Y346012D01*
X531314Y346078D01*
X531386Y346147D01*
X531455Y346219D01*
X531521Y346293D01*
X531585Y346371D01*
X531645Y346450D01*
X531702Y346532D01*
X531756Y346616D01*
X531806Y346702D01*
X531853Y346790D01*
X531897Y346880D01*
X531937Y346971D01*
X531973Y347064D01*
X532006Y347158D01*
X532035Y347254D01*
X532060Y347350D01*
X532081Y347447D01*
X532099Y347546D01*
X532112Y347644D01*
X532122Y347744D01*
X532128Y347843D01*
X532130Y347943D01*
X532130Y350483D01*
X520700Y354965D02*
X520700Y358140D01*
X520702Y358251D01*
X520708Y358361D01*
X520717Y358472D01*
X520731Y358582D01*
X520748Y358691D01*
X520769Y358800D01*
X520794Y358908D01*
X520823Y359015D01*
X520855Y359121D01*
X520891Y359226D01*
X520931Y359329D01*
X520974Y359431D01*
X521021Y359532D01*
X521072Y359631D01*
X521125Y359728D01*
X521182Y359822D01*
X521243Y359915D01*
X521306Y360006D01*
X521373Y360095D01*
X521443Y360181D01*
X521516Y360264D01*
X521591Y360346D01*
X521669Y360424D01*
X521751Y360499D01*
X521834Y360572D01*
X521920Y360642D01*
X522009Y360709D01*
X522100Y360772D01*
X522193Y360833D01*
X522288Y360890D01*
X522384Y360943D01*
X522483Y360994D01*
X522584Y361041D01*
X522686Y361084D01*
X522789Y361124D01*
X522894Y361160D01*
X523000Y361192D01*
X523107Y361221D01*
X523215Y361246D01*
X523324Y361267D01*
X523433Y361284D01*
X523543Y361298D01*
X523654Y361307D01*
X523764Y361313D01*
X523875Y361315D01*
X523986Y361313D01*
X524096Y361307D01*
X524207Y361298D01*
X524317Y361284D01*
X524426Y361267D01*
X524535Y361246D01*
X524643Y361221D01*
X524750Y361192D01*
X524856Y361160D01*
X524961Y361124D01*
X525064Y361084D01*
X525166Y361041D01*
X525267Y360994D01*
X525366Y360943D01*
X525463Y360890D01*
X525557Y360833D01*
X525650Y360772D01*
X525741Y360709D01*
X525830Y360642D01*
X525916Y360572D01*
X525999Y360499D01*
X526081Y360424D01*
X526159Y360346D01*
X526234Y360264D01*
X526307Y360181D01*
X526377Y360095D01*
X526444Y360006D01*
X526507Y359915D01*
X526568Y359822D01*
X526625Y359728D01*
X526678Y359631D01*
X526729Y359532D01*
X526776Y359431D01*
X526819Y359329D01*
X526859Y359226D01*
X526895Y359121D01*
X526927Y359015D01*
X526956Y358908D01*
X526981Y358800D01*
X527002Y358691D01*
X527019Y358582D01*
X527033Y358472D01*
X527042Y358361D01*
X527048Y358251D01*
X527050Y358140D01*
X532130Y358775D02*
X532130Y354965D01*
X532130Y358775D02*
X532128Y358875D01*
X532122Y358974D01*
X532112Y359074D01*
X532099Y359172D01*
X532081Y359271D01*
X532060Y359368D01*
X532035Y359464D01*
X532006Y359560D01*
X531973Y359654D01*
X531937Y359747D01*
X531897Y359838D01*
X531853Y359928D01*
X531806Y360016D01*
X531756Y360102D01*
X531702Y360186D01*
X531645Y360268D01*
X531585Y360347D01*
X531521Y360425D01*
X531455Y360499D01*
X531386Y360571D01*
X531314Y360640D01*
X531240Y360706D01*
X531162Y360770D01*
X531083Y360830D01*
X531001Y360887D01*
X530917Y360941D01*
X530831Y360991D01*
X530743Y361038D01*
X530653Y361082D01*
X530562Y361122D01*
X530469Y361158D01*
X530375Y361191D01*
X530279Y361220D01*
X530183Y361245D01*
X530086Y361266D01*
X529987Y361284D01*
X529889Y361297D01*
X529789Y361307D01*
X529690Y361313D01*
X529590Y361315D01*
X529490Y361313D01*
X529391Y361307D01*
X529291Y361297D01*
X529193Y361284D01*
X529094Y361266D01*
X528997Y361245D01*
X528901Y361220D01*
X528805Y361191D01*
X528711Y361158D01*
X528618Y361122D01*
X528527Y361082D01*
X528437Y361038D01*
X528349Y360991D01*
X528263Y360941D01*
X528179Y360887D01*
X528097Y360830D01*
X528018Y360770D01*
X527940Y360706D01*
X527866Y360640D01*
X527794Y360571D01*
X527725Y360499D01*
X527659Y360425D01*
X527595Y360347D01*
X527535Y360268D01*
X527478Y360186D01*
X527424Y360102D01*
X527374Y360016D01*
X527327Y359928D01*
X527283Y359838D01*
X527243Y359747D01*
X527207Y359654D01*
X527174Y359560D01*
X527145Y359464D01*
X527120Y359368D01*
X527099Y359271D01*
X527081Y359172D01*
X527068Y359074D01*
X527058Y358974D01*
X527052Y358875D01*
X527050Y358775D01*
X527050Y356235D01*
D11*
X828548Y158750D02*
X828670Y158752D01*
X828792Y158758D01*
X828914Y158768D01*
X829035Y158781D01*
X829156Y158799D01*
X829276Y158820D01*
X829396Y158846D01*
X829514Y158875D01*
X829632Y158907D01*
X829749Y158944D01*
X829864Y158984D01*
X829978Y159028D01*
X830090Y159076D01*
X830201Y159127D01*
X830310Y159182D01*
X830418Y159240D01*
X830523Y159302D01*
X830626Y159367D01*
X830728Y159435D01*
X830827Y159507D01*
X830923Y159581D01*
X831018Y159659D01*
X831109Y159740D01*
X831199Y159823D01*
X831285Y159909D01*
X831368Y159999D01*
X831449Y160090D01*
X831527Y160185D01*
X831601Y160281D01*
X831673Y160380D01*
X831741Y160482D01*
X831806Y160585D01*
X831868Y160690D01*
X831926Y160798D01*
X831981Y160907D01*
X832032Y161018D01*
X832080Y161130D01*
X832124Y161244D01*
X832164Y161359D01*
X832201Y161476D01*
X832233Y161594D01*
X832262Y161712D01*
X832288Y161832D01*
X832309Y161952D01*
X832327Y162073D01*
X832340Y162194D01*
X832350Y162316D01*
X832356Y162438D01*
X832358Y162560D01*
X793242Y256540D02*
X793244Y256662D01*
X793250Y256784D01*
X793260Y256906D01*
X793273Y257027D01*
X793291Y257148D01*
X793312Y257268D01*
X793338Y257388D01*
X793367Y257506D01*
X793399Y257624D01*
X793436Y257741D01*
X793476Y257856D01*
X793520Y257970D01*
X793568Y258082D01*
X793619Y258193D01*
X793674Y258302D01*
X793732Y258410D01*
X793794Y258515D01*
X793859Y258618D01*
X793927Y258720D01*
X793999Y258819D01*
X794073Y258915D01*
X794151Y259010D01*
X794232Y259101D01*
X794315Y259191D01*
X794401Y259277D01*
X794491Y259360D01*
X794582Y259441D01*
X794677Y259519D01*
X794773Y259593D01*
X794872Y259665D01*
X794974Y259733D01*
X795077Y259798D01*
X795182Y259860D01*
X795290Y259918D01*
X795399Y259973D01*
X795510Y260024D01*
X795622Y260072D01*
X795736Y260116D01*
X795851Y260156D01*
X795968Y260193D01*
X796086Y260225D01*
X796204Y260254D01*
X796324Y260280D01*
X796444Y260301D01*
X796565Y260319D01*
X796686Y260332D01*
X796808Y260342D01*
X796930Y260348D01*
X797052Y260350D01*
X793242Y162560D02*
X793244Y162438D01*
X793250Y162316D01*
X793260Y162194D01*
X793273Y162073D01*
X793291Y161952D01*
X793312Y161832D01*
X793338Y161712D01*
X793367Y161594D01*
X793399Y161476D01*
X793436Y161359D01*
X793476Y161244D01*
X793520Y161130D01*
X793568Y161018D01*
X793619Y160907D01*
X793674Y160798D01*
X793732Y160690D01*
X793794Y160585D01*
X793859Y160482D01*
X793927Y160380D01*
X793999Y160281D01*
X794073Y160185D01*
X794151Y160090D01*
X794232Y159999D01*
X794315Y159909D01*
X794401Y159823D01*
X794491Y159740D01*
X794582Y159659D01*
X794677Y159581D01*
X794773Y159507D01*
X794872Y159435D01*
X794974Y159367D01*
X795077Y159302D01*
X795182Y159240D01*
X795290Y159182D01*
X795399Y159127D01*
X795510Y159076D01*
X795622Y159028D01*
X795736Y158984D01*
X795851Y158944D01*
X795968Y158907D01*
X796086Y158875D01*
X796204Y158846D01*
X796324Y158820D01*
X796444Y158799D01*
X796565Y158781D01*
X796686Y158768D01*
X796808Y158758D01*
X796930Y158752D01*
X797052Y158750D01*
X832358Y256540D02*
X832356Y256662D01*
X832350Y256784D01*
X832340Y256906D01*
X832327Y257027D01*
X832309Y257148D01*
X832288Y257268D01*
X832262Y257388D01*
X832233Y257506D01*
X832201Y257624D01*
X832164Y257741D01*
X832124Y257856D01*
X832080Y257970D01*
X832032Y258082D01*
X831981Y258193D01*
X831926Y258302D01*
X831868Y258410D01*
X831806Y258515D01*
X831741Y258618D01*
X831673Y258720D01*
X831601Y258819D01*
X831527Y258915D01*
X831449Y259010D01*
X831368Y259101D01*
X831285Y259191D01*
X831199Y259277D01*
X831109Y259360D01*
X831018Y259441D01*
X830923Y259519D01*
X830827Y259593D01*
X830728Y259665D01*
X830626Y259733D01*
X830523Y259798D01*
X830418Y259860D01*
X830310Y259918D01*
X830201Y259973D01*
X830090Y260024D01*
X829978Y260072D01*
X829864Y260116D01*
X829749Y260156D01*
X829632Y260193D01*
X829514Y260225D01*
X829396Y260254D01*
X829276Y260280D01*
X829156Y260301D01*
X829035Y260319D01*
X828914Y260332D01*
X828792Y260342D01*
X828670Y260348D01*
X828548Y260350D01*
X828548Y158750D02*
X797052Y158750D01*
X797052Y260350D02*
X807720Y260350D01*
X817880Y260350D01*
X828548Y260350D01*
X817880Y260350D02*
X817878Y260209D01*
X817872Y260068D01*
X817862Y259927D01*
X817849Y259786D01*
X817831Y259646D01*
X817809Y259507D01*
X817784Y259368D01*
X817755Y259229D01*
X817722Y259092D01*
X817685Y258956D01*
X817644Y258821D01*
X817600Y258686D01*
X817552Y258554D01*
X817500Y258422D01*
X817445Y258292D01*
X817386Y258164D01*
X817323Y258037D01*
X817257Y257913D01*
X817188Y257790D01*
X817115Y257669D01*
X817039Y257550D01*
X816959Y257433D01*
X816876Y257319D01*
X816791Y257206D01*
X816702Y257097D01*
X816610Y256989D01*
X816515Y256885D01*
X816417Y256783D01*
X816316Y256684D01*
X816213Y256587D01*
X816107Y256494D01*
X815999Y256404D01*
X815888Y256316D01*
X815775Y256232D01*
X815659Y256151D01*
X815541Y256073D01*
X815421Y255998D01*
X815299Y255927D01*
X815175Y255859D01*
X815049Y255795D01*
X814922Y255734D01*
X814793Y255677D01*
X814662Y255624D01*
X814530Y255574D01*
X814397Y255527D01*
X814262Y255485D01*
X814126Y255446D01*
X813989Y255411D01*
X813852Y255380D01*
X813713Y255353D01*
X813574Y255329D01*
X813434Y255310D01*
X813294Y255294D01*
X813153Y255282D01*
X813012Y255274D01*
X812871Y255270D01*
X812729Y255270D01*
X812588Y255274D01*
X812447Y255282D01*
X812306Y255294D01*
X812166Y255310D01*
X812026Y255329D01*
X811887Y255353D01*
X811748Y255380D01*
X811611Y255411D01*
X811474Y255446D01*
X811338Y255485D01*
X811203Y255527D01*
X811070Y255574D01*
X810938Y255624D01*
X810807Y255677D01*
X810678Y255734D01*
X810551Y255795D01*
X810425Y255859D01*
X810301Y255927D01*
X810179Y255998D01*
X810059Y256073D01*
X809941Y256151D01*
X809825Y256232D01*
X809712Y256316D01*
X809601Y256404D01*
X809493Y256494D01*
X809387Y256587D01*
X809284Y256684D01*
X809183Y256783D01*
X809085Y256885D01*
X808990Y256989D01*
X808898Y257097D01*
X808809Y257206D01*
X808724Y257319D01*
X808641Y257433D01*
X808561Y257550D01*
X808485Y257669D01*
X808412Y257790D01*
X808343Y257913D01*
X808277Y258037D01*
X808214Y258164D01*
X808155Y258292D01*
X808100Y258422D01*
X808048Y258554D01*
X808000Y258686D01*
X807956Y258821D01*
X807915Y258956D01*
X807878Y259092D01*
X807845Y259229D01*
X807816Y259368D01*
X807791Y259507D01*
X807769Y259646D01*
X807751Y259786D01*
X807738Y259927D01*
X807728Y260068D01*
X807722Y260209D01*
X807720Y260350D01*
D12*
X828802Y260350D02*
X828802Y158750D01*
D14*
X25415Y435939D03*
X25415Y421207D03*
X282590Y435939D03*
X282590Y421207D03*
X311165Y435939D03*
X311165Y421207D03*
X339740Y435939D03*
X339740Y421207D03*
X368315Y435939D03*
X368315Y421207D03*
X396890Y435939D03*
X396890Y421207D03*
X425465Y435939D03*
X425465Y421207D03*
X454040Y435939D03*
X454040Y421207D03*
X482615Y435939D03*
X482615Y421207D03*
X511190Y435939D03*
X511190Y421207D03*
X539765Y435939D03*
X539765Y421207D03*
X53990Y435939D03*
X53990Y421207D03*
X568340Y435939D03*
X568340Y421207D03*
X596915Y435939D03*
X596915Y421207D03*
X625490Y435939D03*
X625490Y421207D03*
X654065Y435939D03*
X654065Y421207D03*
X682640Y435939D03*
X682640Y421207D03*
X82565Y435939D03*
X82565Y421207D03*
X111140Y435939D03*
X111140Y421207D03*
X139715Y435939D03*
X139715Y421207D03*
X168290Y435939D03*
X168290Y421207D03*
X196865Y435939D03*
X196865Y421207D03*
X225440Y435939D03*
X225440Y421207D03*
X254015Y435939D03*
X254015Y421207D03*
D11*
X862965Y362458D02*
X863087Y362456D01*
X863209Y362450D01*
X863331Y362440D01*
X863452Y362427D01*
X863573Y362409D01*
X863693Y362388D01*
X863813Y362362D01*
X863931Y362333D01*
X864049Y362301D01*
X864166Y362264D01*
X864281Y362224D01*
X864395Y362180D01*
X864507Y362132D01*
X864618Y362081D01*
X864727Y362026D01*
X864835Y361968D01*
X864940Y361906D01*
X865043Y361841D01*
X865145Y361773D01*
X865244Y361701D01*
X865340Y361627D01*
X865435Y361549D01*
X865526Y361468D01*
X865616Y361385D01*
X865702Y361299D01*
X865785Y361209D01*
X865866Y361118D01*
X865944Y361023D01*
X866018Y360927D01*
X866090Y360828D01*
X866158Y360726D01*
X866223Y360623D01*
X866285Y360518D01*
X866343Y360410D01*
X866398Y360301D01*
X866449Y360190D01*
X866497Y360078D01*
X866541Y359964D01*
X866581Y359849D01*
X866618Y359732D01*
X866650Y359614D01*
X866679Y359496D01*
X866705Y359376D01*
X866726Y359256D01*
X866744Y359135D01*
X866757Y359014D01*
X866767Y358892D01*
X866773Y358770D01*
X866775Y358648D01*
X768985Y323342D02*
X768863Y323344D01*
X768741Y323350D01*
X768619Y323360D01*
X768498Y323373D01*
X768377Y323391D01*
X768257Y323412D01*
X768137Y323438D01*
X768019Y323467D01*
X767901Y323499D01*
X767784Y323536D01*
X767669Y323576D01*
X767555Y323620D01*
X767443Y323668D01*
X767332Y323719D01*
X767223Y323774D01*
X767115Y323832D01*
X767010Y323894D01*
X766907Y323959D01*
X766805Y324027D01*
X766706Y324099D01*
X766610Y324173D01*
X766515Y324251D01*
X766424Y324332D01*
X766334Y324415D01*
X766248Y324501D01*
X766165Y324591D01*
X766084Y324682D01*
X766006Y324777D01*
X765932Y324873D01*
X765860Y324972D01*
X765792Y325074D01*
X765727Y325177D01*
X765665Y325282D01*
X765607Y325390D01*
X765552Y325499D01*
X765501Y325610D01*
X765453Y325722D01*
X765409Y325836D01*
X765369Y325951D01*
X765332Y326068D01*
X765300Y326186D01*
X765271Y326304D01*
X765245Y326424D01*
X765224Y326544D01*
X765206Y326665D01*
X765193Y326786D01*
X765183Y326908D01*
X765177Y327030D01*
X765175Y327152D01*
X862965Y323342D02*
X863087Y323344D01*
X863209Y323350D01*
X863331Y323360D01*
X863452Y323373D01*
X863573Y323391D01*
X863693Y323412D01*
X863813Y323438D01*
X863931Y323467D01*
X864049Y323499D01*
X864166Y323536D01*
X864281Y323576D01*
X864395Y323620D01*
X864507Y323668D01*
X864618Y323719D01*
X864727Y323774D01*
X864835Y323832D01*
X864940Y323894D01*
X865043Y323959D01*
X865145Y324027D01*
X865244Y324099D01*
X865340Y324173D01*
X865435Y324251D01*
X865526Y324332D01*
X865616Y324415D01*
X865702Y324501D01*
X865785Y324591D01*
X865866Y324682D01*
X865944Y324777D01*
X866018Y324873D01*
X866090Y324972D01*
X866158Y325074D01*
X866223Y325177D01*
X866285Y325282D01*
X866343Y325390D01*
X866398Y325499D01*
X866449Y325610D01*
X866497Y325722D01*
X866541Y325836D01*
X866581Y325951D01*
X866618Y326068D01*
X866650Y326186D01*
X866679Y326304D01*
X866705Y326424D01*
X866726Y326544D01*
X866744Y326665D01*
X866757Y326786D01*
X866767Y326908D01*
X866773Y327030D01*
X866775Y327152D01*
X768985Y362458D02*
X768863Y362456D01*
X768741Y362450D01*
X768619Y362440D01*
X768498Y362427D01*
X768377Y362409D01*
X768257Y362388D01*
X768137Y362362D01*
X768019Y362333D01*
X767901Y362301D01*
X767784Y362264D01*
X767669Y362224D01*
X767555Y362180D01*
X767443Y362132D01*
X767332Y362081D01*
X767223Y362026D01*
X767115Y361968D01*
X767010Y361906D01*
X766907Y361841D01*
X766805Y361773D01*
X766706Y361701D01*
X766610Y361627D01*
X766515Y361549D01*
X766424Y361468D01*
X766334Y361385D01*
X766248Y361299D01*
X766165Y361209D01*
X766084Y361118D01*
X766006Y361023D01*
X765932Y360927D01*
X765860Y360828D01*
X765792Y360726D01*
X765727Y360623D01*
X765665Y360518D01*
X765607Y360410D01*
X765552Y360301D01*
X765501Y360190D01*
X765453Y360078D01*
X765409Y359964D01*
X765369Y359849D01*
X765332Y359732D01*
X765300Y359614D01*
X765271Y359496D01*
X765245Y359376D01*
X765224Y359256D01*
X765206Y359135D01*
X765193Y359014D01*
X765183Y358892D01*
X765177Y358770D01*
X765175Y358648D01*
X866775Y358648D02*
X866775Y327152D01*
X765175Y327152D02*
X765175Y337820D01*
X765175Y347980D01*
X765175Y358648D01*
X765175Y347980D02*
X765316Y347978D01*
X765457Y347972D01*
X765598Y347962D01*
X765739Y347949D01*
X765879Y347931D01*
X766018Y347909D01*
X766157Y347884D01*
X766296Y347855D01*
X766433Y347822D01*
X766569Y347785D01*
X766704Y347744D01*
X766839Y347700D01*
X766971Y347652D01*
X767103Y347600D01*
X767233Y347545D01*
X767361Y347486D01*
X767488Y347423D01*
X767612Y347357D01*
X767735Y347288D01*
X767856Y347215D01*
X767975Y347139D01*
X768092Y347059D01*
X768206Y346976D01*
X768319Y346891D01*
X768428Y346802D01*
X768536Y346710D01*
X768640Y346615D01*
X768742Y346517D01*
X768841Y346416D01*
X768938Y346313D01*
X769031Y346207D01*
X769121Y346099D01*
X769209Y345988D01*
X769293Y345875D01*
X769374Y345759D01*
X769452Y345641D01*
X769527Y345521D01*
X769598Y345399D01*
X769666Y345275D01*
X769730Y345149D01*
X769791Y345022D01*
X769848Y344893D01*
X769901Y344762D01*
X769951Y344630D01*
X769998Y344497D01*
X770040Y344362D01*
X770079Y344226D01*
X770114Y344089D01*
X770145Y343952D01*
X770172Y343813D01*
X770196Y343674D01*
X770215Y343534D01*
X770231Y343394D01*
X770243Y343253D01*
X770251Y343112D01*
X770255Y342971D01*
X770255Y342829D01*
X770251Y342688D01*
X770243Y342547D01*
X770231Y342406D01*
X770215Y342266D01*
X770196Y342126D01*
X770172Y341987D01*
X770145Y341848D01*
X770114Y341711D01*
X770079Y341574D01*
X770040Y341438D01*
X769998Y341303D01*
X769951Y341170D01*
X769901Y341038D01*
X769848Y340907D01*
X769791Y340778D01*
X769730Y340651D01*
X769666Y340525D01*
X769598Y340401D01*
X769527Y340279D01*
X769452Y340159D01*
X769374Y340041D01*
X769293Y339925D01*
X769209Y339812D01*
X769121Y339701D01*
X769031Y339593D01*
X768938Y339487D01*
X768841Y339384D01*
X768742Y339283D01*
X768640Y339185D01*
X768536Y339090D01*
X768428Y338998D01*
X768319Y338909D01*
X768206Y338824D01*
X768092Y338741D01*
X767975Y338661D01*
X767856Y338585D01*
X767735Y338512D01*
X767612Y338443D01*
X767488Y338377D01*
X767361Y338314D01*
X767233Y338255D01*
X767103Y338200D01*
X766971Y338148D01*
X766839Y338100D01*
X766704Y338056D01*
X766569Y338015D01*
X766433Y337978D01*
X766296Y337945D01*
X766157Y337916D01*
X766018Y337891D01*
X765879Y337869D01*
X765739Y337851D01*
X765598Y337838D01*
X765457Y337828D01*
X765316Y337822D01*
X765175Y337820D01*
D12*
X765175Y358902D02*
X866775Y358902D01*
D13*
X760730Y339471D02*
X749300Y339471D01*
X749300Y338201D02*
X749300Y340741D01*
X760730Y340741D02*
X760730Y338201D01*
X749300Y347943D02*
X749300Y350483D01*
X749300Y347943D02*
X749302Y347843D01*
X749308Y347744D01*
X749318Y347644D01*
X749331Y347546D01*
X749349Y347447D01*
X749370Y347350D01*
X749395Y347254D01*
X749424Y347158D01*
X749457Y347064D01*
X749493Y346971D01*
X749533Y346880D01*
X749577Y346790D01*
X749624Y346702D01*
X749674Y346616D01*
X749728Y346532D01*
X749785Y346450D01*
X749845Y346371D01*
X749909Y346293D01*
X749975Y346219D01*
X750044Y346147D01*
X750116Y346078D01*
X750190Y346012D01*
X750268Y345948D01*
X750347Y345888D01*
X750429Y345831D01*
X750513Y345777D01*
X750599Y345727D01*
X750687Y345680D01*
X750777Y345636D01*
X750868Y345596D01*
X750961Y345560D01*
X751055Y345527D01*
X751151Y345498D01*
X751247Y345473D01*
X751344Y345452D01*
X751443Y345434D01*
X751541Y345421D01*
X751641Y345411D01*
X751740Y345405D01*
X751840Y345403D01*
X758190Y345403D01*
X758290Y345405D01*
X758389Y345411D01*
X758489Y345421D01*
X758587Y345434D01*
X758686Y345452D01*
X758783Y345473D01*
X758879Y345498D01*
X758975Y345527D01*
X759069Y345560D01*
X759162Y345596D01*
X759253Y345636D01*
X759343Y345680D01*
X759431Y345727D01*
X759517Y345777D01*
X759601Y345831D01*
X759683Y345888D01*
X759762Y345948D01*
X759840Y346012D01*
X759914Y346078D01*
X759986Y346147D01*
X760055Y346219D01*
X760121Y346293D01*
X760185Y346371D01*
X760245Y346450D01*
X760302Y346532D01*
X760356Y346616D01*
X760406Y346702D01*
X760453Y346790D01*
X760497Y346880D01*
X760537Y346971D01*
X760573Y347064D01*
X760606Y347158D01*
X760635Y347254D01*
X760660Y347350D01*
X760681Y347447D01*
X760699Y347546D01*
X760712Y347644D01*
X760722Y347744D01*
X760728Y347843D01*
X760730Y347943D01*
X760730Y350483D01*
X755650Y354965D02*
X755650Y358775D01*
X755648Y358875D01*
X755642Y358974D01*
X755632Y359074D01*
X755619Y359172D01*
X755601Y359271D01*
X755580Y359368D01*
X755555Y359464D01*
X755526Y359560D01*
X755493Y359654D01*
X755457Y359747D01*
X755417Y359838D01*
X755373Y359928D01*
X755326Y360016D01*
X755276Y360102D01*
X755222Y360186D01*
X755165Y360268D01*
X755105Y360347D01*
X755041Y360425D01*
X754975Y360499D01*
X754906Y360571D01*
X754834Y360640D01*
X754760Y360706D01*
X754682Y360770D01*
X754603Y360830D01*
X754521Y360887D01*
X754437Y360941D01*
X754351Y360991D01*
X754263Y361038D01*
X754173Y361082D01*
X754082Y361122D01*
X753989Y361158D01*
X753895Y361191D01*
X753799Y361220D01*
X753703Y361245D01*
X753606Y361266D01*
X753507Y361284D01*
X753409Y361297D01*
X753309Y361307D01*
X753210Y361313D01*
X753110Y361315D01*
X752475Y361315D01*
X752364Y361313D01*
X752254Y361307D01*
X752143Y361298D01*
X752033Y361284D01*
X751924Y361267D01*
X751815Y361246D01*
X751707Y361221D01*
X751600Y361192D01*
X751494Y361160D01*
X751389Y361124D01*
X751286Y361084D01*
X751184Y361041D01*
X751083Y360994D01*
X750984Y360943D01*
X750888Y360890D01*
X750793Y360833D01*
X750700Y360772D01*
X750609Y360709D01*
X750520Y360642D01*
X750434Y360572D01*
X750351Y360499D01*
X750269Y360424D01*
X750191Y360346D01*
X750116Y360264D01*
X750043Y360181D01*
X749973Y360095D01*
X749906Y360006D01*
X749843Y359915D01*
X749782Y359822D01*
X749725Y359728D01*
X749672Y359631D01*
X749621Y359532D01*
X749574Y359431D01*
X749531Y359329D01*
X749491Y359226D01*
X749455Y359121D01*
X749423Y359015D01*
X749394Y358908D01*
X749369Y358800D01*
X749348Y358691D01*
X749331Y358582D01*
X749317Y358472D01*
X749308Y358361D01*
X749302Y358251D01*
X749300Y358140D01*
X749302Y358029D01*
X749308Y357919D01*
X749317Y357808D01*
X749331Y357698D01*
X749348Y357589D01*
X749369Y357480D01*
X749394Y357372D01*
X749423Y357265D01*
X749455Y357159D01*
X749491Y357054D01*
X749531Y356951D01*
X749574Y356849D01*
X749621Y356748D01*
X749672Y356649D01*
X749725Y356553D01*
X749782Y356458D01*
X749843Y356365D01*
X749906Y356274D01*
X749973Y356185D01*
X750043Y356099D01*
X750116Y356016D01*
X750191Y355934D01*
X750269Y355856D01*
X750351Y355781D01*
X750434Y355708D01*
X750520Y355638D01*
X750609Y355571D01*
X750700Y355508D01*
X750793Y355447D01*
X750888Y355390D01*
X750984Y355337D01*
X751083Y355286D01*
X751184Y355239D01*
X751286Y355196D01*
X751389Y355156D01*
X751494Y355120D01*
X751600Y355088D01*
X751707Y355059D01*
X751815Y355034D01*
X751924Y355013D01*
X752033Y354996D01*
X752143Y354982D01*
X752254Y354973D01*
X752364Y354967D01*
X752475Y354965D01*
X755650Y354965D01*
X755790Y354967D01*
X755930Y354973D01*
X756070Y354982D01*
X756209Y354996D01*
X756348Y355013D01*
X756486Y355034D01*
X756624Y355059D01*
X756761Y355088D01*
X756897Y355120D01*
X757032Y355157D01*
X757166Y355197D01*
X757299Y355240D01*
X757431Y355288D01*
X757562Y355338D01*
X757691Y355393D01*
X757818Y355451D01*
X757944Y355512D01*
X758068Y355577D01*
X758190Y355646D01*
X758310Y355717D01*
X758428Y355792D01*
X758545Y355870D01*
X758659Y355952D01*
X758770Y356036D01*
X758879Y356124D01*
X758986Y356214D01*
X759091Y356308D01*
X759192Y356404D01*
X759291Y356503D01*
X759387Y356604D01*
X759481Y356709D01*
X759571Y356816D01*
X759659Y356925D01*
X759743Y357036D01*
X759825Y357150D01*
X759903Y357267D01*
X759978Y357385D01*
X760049Y357505D01*
X760118Y357627D01*
X760183Y357751D01*
X760244Y357877D01*
X760302Y358004D01*
X760357Y358133D01*
X760407Y358264D01*
X760455Y358396D01*
X760498Y358529D01*
X760538Y358663D01*
X760575Y358798D01*
X760607Y358934D01*
X760636Y359071D01*
X760661Y359209D01*
X760682Y359347D01*
X760699Y359486D01*
X760713Y359625D01*
X760722Y359765D01*
X760728Y359905D01*
X760730Y360045D01*
D14*
X711215Y435939D03*
X711215Y421207D03*
X739790Y435939D03*
X739790Y421207D03*
X768365Y435939D03*
X768365Y421207D03*
X796940Y435939D03*
X796940Y421207D03*
X825515Y435939D03*
X825515Y421207D03*
X854090Y435939D03*
X854090Y421207D03*
X882665Y435939D03*
X882665Y421207D03*
X911240Y435939D03*
X911240Y421207D03*
D11*
X832358Y45085D02*
X832356Y44963D01*
X832350Y44841D01*
X832340Y44719D01*
X832327Y44598D01*
X832309Y44477D01*
X832288Y44357D01*
X832262Y44237D01*
X832233Y44119D01*
X832201Y44001D01*
X832164Y43884D01*
X832124Y43769D01*
X832080Y43655D01*
X832032Y43543D01*
X831981Y43432D01*
X831926Y43323D01*
X831868Y43215D01*
X831806Y43110D01*
X831741Y43007D01*
X831673Y42905D01*
X831601Y42806D01*
X831527Y42710D01*
X831449Y42615D01*
X831368Y42524D01*
X831285Y42434D01*
X831199Y42348D01*
X831109Y42265D01*
X831018Y42184D01*
X830923Y42106D01*
X830827Y42032D01*
X830728Y41960D01*
X830626Y41892D01*
X830523Y41827D01*
X830418Y41765D01*
X830310Y41707D01*
X830201Y41652D01*
X830090Y41601D01*
X829978Y41553D01*
X829864Y41509D01*
X829749Y41469D01*
X829632Y41432D01*
X829514Y41400D01*
X829396Y41371D01*
X829276Y41345D01*
X829156Y41324D01*
X829035Y41306D01*
X828914Y41293D01*
X828792Y41283D01*
X828670Y41277D01*
X828548Y41275D01*
X793242Y139065D02*
X793244Y139187D01*
X793250Y139309D01*
X793260Y139431D01*
X793273Y139552D01*
X793291Y139673D01*
X793312Y139793D01*
X793338Y139913D01*
X793367Y140031D01*
X793399Y140149D01*
X793436Y140266D01*
X793476Y140381D01*
X793520Y140495D01*
X793568Y140607D01*
X793619Y140718D01*
X793674Y140827D01*
X793732Y140935D01*
X793794Y141040D01*
X793859Y141143D01*
X793927Y141245D01*
X793999Y141344D01*
X794073Y141440D01*
X794151Y141535D01*
X794232Y141626D01*
X794315Y141716D01*
X794401Y141802D01*
X794491Y141885D01*
X794582Y141966D01*
X794677Y142044D01*
X794773Y142118D01*
X794872Y142190D01*
X794974Y142258D01*
X795077Y142323D01*
X795182Y142385D01*
X795290Y142443D01*
X795399Y142498D01*
X795510Y142549D01*
X795622Y142597D01*
X795736Y142641D01*
X795851Y142681D01*
X795968Y142718D01*
X796086Y142750D01*
X796204Y142779D01*
X796324Y142805D01*
X796444Y142826D01*
X796565Y142844D01*
X796686Y142857D01*
X796808Y142867D01*
X796930Y142873D01*
X797052Y142875D01*
X793242Y45085D02*
X793244Y44963D01*
X793250Y44841D01*
X793260Y44719D01*
X793273Y44598D01*
X793291Y44477D01*
X793312Y44357D01*
X793338Y44237D01*
X793367Y44119D01*
X793399Y44001D01*
X793436Y43884D01*
X793476Y43769D01*
X793520Y43655D01*
X793568Y43543D01*
X793619Y43432D01*
X793674Y43323D01*
X793732Y43215D01*
X793794Y43110D01*
X793859Y43007D01*
X793927Y42905D01*
X793999Y42806D01*
X794073Y42710D01*
X794151Y42615D01*
X794232Y42524D01*
X794315Y42434D01*
X794401Y42348D01*
X794491Y42265D01*
X794582Y42184D01*
X794677Y42106D01*
X794773Y42032D01*
X794872Y41960D01*
X794974Y41892D01*
X795077Y41827D01*
X795182Y41765D01*
X795290Y41707D01*
X795399Y41652D01*
X795510Y41601D01*
X795622Y41553D01*
X795736Y41509D01*
X795851Y41469D01*
X795968Y41432D01*
X796086Y41400D01*
X796204Y41371D01*
X796324Y41345D01*
X796444Y41324D01*
X796565Y41306D01*
X796686Y41293D01*
X796808Y41283D01*
X796930Y41277D01*
X797052Y41275D01*
X832358Y139065D02*
X832356Y139187D01*
X832350Y139309D01*
X832340Y139431D01*
X832327Y139552D01*
X832309Y139673D01*
X832288Y139793D01*
X832262Y139913D01*
X832233Y140031D01*
X832201Y140149D01*
X832164Y140266D01*
X832124Y140381D01*
X832080Y140495D01*
X832032Y140607D01*
X831981Y140718D01*
X831926Y140827D01*
X831868Y140935D01*
X831806Y141040D01*
X831741Y141143D01*
X831673Y141245D01*
X831601Y141344D01*
X831527Y141440D01*
X831449Y141535D01*
X831368Y141626D01*
X831285Y141716D01*
X831199Y141802D01*
X831109Y141885D01*
X831018Y141966D01*
X830923Y142044D01*
X830827Y142118D01*
X830728Y142190D01*
X830626Y142258D01*
X830523Y142323D01*
X830418Y142385D01*
X830310Y142443D01*
X830201Y142498D01*
X830090Y142549D01*
X829978Y142597D01*
X829864Y142641D01*
X829749Y142681D01*
X829632Y142718D01*
X829514Y142750D01*
X829396Y142779D01*
X829276Y142805D01*
X829156Y142826D01*
X829035Y142844D01*
X828914Y142857D01*
X828792Y142867D01*
X828670Y142873D01*
X828548Y142875D01*
X828548Y41275D02*
X797052Y41275D01*
X797052Y142875D02*
X807720Y142875D01*
X817880Y142875D01*
X828548Y142875D01*
X817880Y142875D02*
X817878Y142734D01*
X817872Y142593D01*
X817862Y142452D01*
X817849Y142311D01*
X817831Y142171D01*
X817809Y142032D01*
X817784Y141893D01*
X817755Y141754D01*
X817722Y141617D01*
X817685Y141481D01*
X817644Y141346D01*
X817600Y141211D01*
X817552Y141079D01*
X817500Y140947D01*
X817445Y140817D01*
X817386Y140689D01*
X817323Y140562D01*
X817257Y140438D01*
X817188Y140315D01*
X817115Y140194D01*
X817039Y140075D01*
X816959Y139958D01*
X816876Y139844D01*
X816791Y139731D01*
X816702Y139622D01*
X816610Y139514D01*
X816515Y139410D01*
X816417Y139308D01*
X816316Y139209D01*
X816213Y139112D01*
X816107Y139019D01*
X815999Y138929D01*
X815888Y138841D01*
X815775Y138757D01*
X815659Y138676D01*
X815541Y138598D01*
X815421Y138523D01*
X815299Y138452D01*
X815175Y138384D01*
X815049Y138320D01*
X814922Y138259D01*
X814793Y138202D01*
X814662Y138149D01*
X814530Y138099D01*
X814397Y138052D01*
X814262Y138010D01*
X814126Y137971D01*
X813989Y137936D01*
X813852Y137905D01*
X813713Y137878D01*
X813574Y137854D01*
X813434Y137835D01*
X813294Y137819D01*
X813153Y137807D01*
X813012Y137799D01*
X812871Y137795D01*
X812729Y137795D01*
X812588Y137799D01*
X812447Y137807D01*
X812306Y137819D01*
X812166Y137835D01*
X812026Y137854D01*
X811887Y137878D01*
X811748Y137905D01*
X811611Y137936D01*
X811474Y137971D01*
X811338Y138010D01*
X811203Y138052D01*
X811070Y138099D01*
X810938Y138149D01*
X810807Y138202D01*
X810678Y138259D01*
X810551Y138320D01*
X810425Y138384D01*
X810301Y138452D01*
X810179Y138523D01*
X810059Y138598D01*
X809941Y138676D01*
X809825Y138757D01*
X809712Y138841D01*
X809601Y138929D01*
X809493Y139019D01*
X809387Y139112D01*
X809284Y139209D01*
X809183Y139308D01*
X809085Y139410D01*
X808990Y139514D01*
X808898Y139622D01*
X808809Y139731D01*
X808724Y139844D01*
X808641Y139958D01*
X808561Y140075D01*
X808485Y140194D01*
X808412Y140315D01*
X808343Y140438D01*
X808277Y140562D01*
X808214Y140689D01*
X808155Y140817D01*
X808100Y140947D01*
X808048Y141079D01*
X808000Y141211D01*
X807956Y141346D01*
X807915Y141481D01*
X807878Y141617D01*
X807845Y141754D01*
X807816Y141893D01*
X807791Y142032D01*
X807769Y142171D01*
X807751Y142311D01*
X807738Y142452D01*
X807728Y142593D01*
X807722Y142734D01*
X807720Y142875D01*
D12*
X828802Y142875D02*
X828802Y41275D01*
M02*
