G04 EAGLE Gerber RS-274X export*
G75*
%MOMM*%
%FSLAX34Y34*%
%LPD*%
%INSoldermask Bottom*%
%IPPOS*%
%AMOC8*
5,1,8,0,0,1.08239X$1,22.5*%
G01*
%ADD10C,1.727200*%
%ADD11P,1.951982X8X112.500000*%
%ADD12C,1.803400*%
%ADD13R,1.803200X1.503200*%
%ADD14R,1.303200X1.603200*%
%ADD15C,1.203200*%
%ADD16C,3.003200*%
%ADD17R,0.863600X2.235200*%
%ADD18R,2.235200X0.863600*%
%ADD19C,1.320800*%
%ADD20R,1.603200X1.303200*%
%ADD21R,1.703200X1.503200*%
%ADD22C,0.909600*%
%ADD23C,0.959600*%


D10*
X204343Y251206D02*
X219583Y251206D01*
X219583Y205994D02*
X204343Y205994D01*
X269367Y251206D02*
X284607Y251206D01*
X284607Y205994D02*
X269367Y205994D01*
D11*
X669925Y68580D03*
D12*
X669925Y33020D03*
D11*
X581025Y68580D03*
D12*
X581025Y33020D03*
D13*
X184150Y94775D03*
X184150Y114775D03*
X269875Y113825D03*
X269875Y133825D03*
D14*
X142400Y133350D03*
X162400Y133350D03*
X383700Y101600D03*
X403700Y101600D03*
D15*
X57625Y171225D03*
X57625Y127225D03*
D16*
X955675Y965200D03*
X38100Y38100D03*
X952500Y38100D03*
D17*
X85725Y373634D03*
X85725Y312166D03*
X98425Y373634D03*
X111125Y373634D03*
X98425Y312166D03*
X111125Y312166D03*
X123825Y373634D03*
X123825Y312166D03*
X136525Y373634D03*
X136525Y312166D03*
X149225Y373634D03*
X161925Y373634D03*
X149225Y312166D03*
X161925Y312166D03*
X174625Y373634D03*
X174625Y312166D03*
X314325Y373634D03*
X314325Y312166D03*
X327025Y373634D03*
X339725Y373634D03*
X327025Y312166D03*
X339725Y312166D03*
X352425Y373634D03*
X352425Y312166D03*
X365125Y373634D03*
X365125Y312166D03*
X377825Y373634D03*
X390525Y373634D03*
X377825Y312166D03*
X390525Y312166D03*
X403225Y373634D03*
X403225Y312166D03*
X542925Y373634D03*
X542925Y312166D03*
X555625Y373634D03*
X568325Y373634D03*
X555625Y312166D03*
X568325Y312166D03*
X581025Y373634D03*
X581025Y312166D03*
X593725Y373634D03*
X593725Y312166D03*
X606425Y373634D03*
X619125Y373634D03*
X606425Y312166D03*
X619125Y312166D03*
X631825Y373634D03*
X631825Y312166D03*
D18*
X843534Y254000D03*
X782066Y254000D03*
X843534Y241300D03*
X843534Y228600D03*
X782066Y241300D03*
X782066Y228600D03*
X843534Y215900D03*
X782066Y215900D03*
X843534Y203200D03*
X782066Y203200D03*
X843534Y190500D03*
X843534Y177800D03*
X782066Y190500D03*
X782066Y177800D03*
X843534Y165100D03*
X782066Y165100D03*
D10*
X337820Y155575D02*
X322580Y155575D01*
X322580Y180975D02*
X337820Y180975D01*
D19*
X275463Y92075D02*
X264287Y92075D01*
X264287Y41275D02*
X275463Y41275D01*
D20*
X25400Y418625D03*
X25400Y438625D03*
X282575Y418625D03*
X282575Y438625D03*
X311150Y418625D03*
X311150Y438625D03*
X339725Y418625D03*
X339725Y438625D03*
X368300Y418625D03*
X368300Y438625D03*
X396875Y418625D03*
X396875Y438625D03*
X425450Y418625D03*
X425450Y438625D03*
X454025Y418625D03*
X454025Y438625D03*
X482600Y418625D03*
X482600Y438625D03*
X511175Y418625D03*
X511175Y438625D03*
X539750Y418625D03*
X539750Y438625D03*
X53975Y418625D03*
X53975Y438625D03*
X568325Y418625D03*
X568325Y438625D03*
X596900Y418625D03*
X596900Y438625D03*
X625475Y418625D03*
X625475Y438625D03*
X654050Y418625D03*
X654050Y438625D03*
X682625Y418625D03*
X682625Y438625D03*
D21*
X184150Y209575D03*
X184150Y228575D03*
D20*
X82550Y418625D03*
X82550Y438625D03*
X111125Y418625D03*
X111125Y438625D03*
D21*
X266700Y333350D03*
X266700Y314350D03*
X238125Y333350D03*
X238125Y314350D03*
X209550Y333350D03*
X209550Y314350D03*
D20*
X139700Y418625D03*
X139700Y438625D03*
X168275Y418625D03*
X168275Y438625D03*
X196850Y418625D03*
X196850Y438625D03*
X225425Y418625D03*
X225425Y438625D03*
X254000Y418625D03*
X254000Y438625D03*
D10*
X367919Y194183D02*
X367919Y178943D01*
X413131Y178943D02*
X413131Y194183D01*
X367919Y243967D02*
X367919Y259207D01*
X413131Y259207D02*
X413131Y243967D01*
X487680Y152400D02*
X502920Y152400D01*
X502920Y127000D02*
X487680Y127000D01*
X487680Y101600D02*
X502920Y101600D01*
X502920Y76200D02*
X487680Y76200D01*
X487680Y50800D02*
X502920Y50800D01*
X502920Y25400D02*
X487680Y25400D01*
X282575Y160655D02*
X282575Y175895D01*
X257175Y175895D02*
X257175Y160655D01*
X231775Y160655D02*
X231775Y175895D01*
D17*
X771525Y373634D03*
X771525Y312166D03*
X784225Y373634D03*
X796925Y373634D03*
X784225Y312166D03*
X796925Y312166D03*
X809625Y373634D03*
X809625Y312166D03*
X822325Y373634D03*
X822325Y312166D03*
X835025Y373634D03*
X847725Y373634D03*
X835025Y312166D03*
X847725Y312166D03*
X860425Y373634D03*
X860425Y312166D03*
D20*
X711200Y418625D03*
X711200Y438625D03*
X739775Y418625D03*
X739775Y438625D03*
X768350Y418625D03*
X768350Y438625D03*
X796925Y418625D03*
X796925Y438625D03*
X825500Y418625D03*
X825500Y438625D03*
X854075Y418625D03*
X854075Y438625D03*
X882650Y418625D03*
X882650Y438625D03*
X911225Y418625D03*
X911225Y438625D03*
D18*
X843534Y136525D03*
X782066Y136525D03*
X843534Y123825D03*
X843534Y111125D03*
X782066Y123825D03*
X782066Y111125D03*
X843534Y98425D03*
X782066Y98425D03*
X843534Y85725D03*
X782066Y85725D03*
X843534Y73025D03*
X843534Y60325D03*
X782066Y73025D03*
X782066Y60325D03*
X843534Y47625D03*
X782066Y47625D03*
D10*
X466344Y178943D02*
X466344Y194183D01*
X511556Y194183D02*
X511556Y178943D01*
X466344Y243967D02*
X466344Y259207D01*
X511556Y259207D02*
X511556Y243967D01*
X618744Y194183D02*
X618744Y178943D01*
X663956Y178943D02*
X663956Y194183D01*
X618744Y243967D02*
X618744Y259207D01*
X663956Y259207D02*
X663956Y243967D01*
X542544Y194183D02*
X542544Y178943D01*
X587756Y178943D02*
X587756Y194183D01*
X542544Y243967D02*
X542544Y259207D01*
X587756Y259207D02*
X587756Y243967D01*
D22*
X838200Y457200D03*
X838200Y974725D03*
X866775Y457200D03*
X866775Y930275D03*
X895350Y457200D03*
X895350Y885825D03*
X946150Y288925D03*
X946150Y409575D03*
X927100Y409575D03*
X923925Y841375D03*
X952500Y254000D03*
X952500Y415925D03*
X930275Y422275D03*
X930275Y796925D03*
X955675Y219075D03*
X958850Y425450D03*
X936625Y441325D03*
X936625Y752475D03*
X962025Y184150D03*
X962025Y434975D03*
X942975Y450850D03*
X942975Y708025D03*
X965200Y149225D03*
X968375Y444500D03*
X949325Y473075D03*
X949325Y663575D03*
D23*
X38100Y952500D03*
X38100Y911225D03*
D22*
X38100Y466725D03*
X38100Y511175D03*
X38100Y555625D03*
X38100Y600075D03*
X38100Y644525D03*
X38100Y688975D03*
X38100Y733425D03*
X38100Y777875D03*
X38100Y822325D03*
X38100Y866775D03*
X66675Y952500D03*
X66675Y908050D03*
X66675Y863600D03*
X66675Y819150D03*
X66675Y774700D03*
X66675Y730250D03*
X66675Y685800D03*
X66675Y641350D03*
X66675Y596900D03*
X66675Y552450D03*
X66675Y508000D03*
X66675Y463550D03*
X95250Y952500D03*
X95250Y908050D03*
X95250Y863600D03*
X95250Y819150D03*
X95250Y774700D03*
X95250Y730250D03*
X95250Y685800D03*
X95250Y641350D03*
X95250Y596900D03*
X95250Y552450D03*
X95250Y508000D03*
X95250Y463550D03*
X123825Y952500D03*
X123825Y908050D03*
X123825Y863600D03*
X123825Y819150D03*
X123825Y774700D03*
X123825Y730250D03*
X123825Y685800D03*
X123825Y641350D03*
X123825Y596900D03*
X123825Y552450D03*
X123825Y508000D03*
X123825Y463550D03*
X152400Y952500D03*
X152400Y908050D03*
X152400Y863600D03*
X152400Y819150D03*
X152400Y774700D03*
X152400Y730250D03*
X152400Y685800D03*
X152400Y641350D03*
X152400Y596900D03*
X152400Y552450D03*
X152400Y508000D03*
X152400Y463550D03*
X180975Y952500D03*
X180975Y908050D03*
X180975Y863600D03*
X180975Y819150D03*
X180975Y774700D03*
X180975Y730250D03*
X180975Y685800D03*
X180975Y641350D03*
X180975Y596900D03*
X180975Y552450D03*
X180975Y508000D03*
X180975Y463550D03*
X209550Y952500D03*
X209550Y908050D03*
X209550Y863600D03*
X209550Y819150D03*
X209550Y774700D03*
X209550Y730250D03*
X209550Y685800D03*
X209550Y641350D03*
X209550Y596900D03*
X209550Y552450D03*
X209550Y508000D03*
X209550Y463550D03*
X238125Y908050D03*
X238125Y952500D03*
X238125Y863600D03*
X238125Y819150D03*
X238125Y774700D03*
X238125Y730250D03*
X238125Y685800D03*
X238125Y641350D03*
X238125Y596900D03*
X238125Y552450D03*
X238125Y508000D03*
X238125Y463550D03*
X266700Y952500D03*
X266700Y908050D03*
X266700Y863600D03*
X266700Y819150D03*
X266700Y774700D03*
X266700Y730250D03*
X266700Y685800D03*
X266700Y641350D03*
X266700Y596900D03*
X266700Y552450D03*
X266700Y508000D03*
X266700Y463550D03*
X295275Y952500D03*
X295275Y908050D03*
X295275Y863600D03*
X295275Y819150D03*
X295275Y774700D03*
X295275Y730250D03*
X295275Y685800D03*
X295275Y641350D03*
X295275Y552450D03*
X295275Y596900D03*
X295275Y508000D03*
X295275Y463550D03*
X323850Y908050D03*
X323850Y952500D03*
X323850Y863600D03*
X323850Y819150D03*
X323850Y774700D03*
X323850Y730250D03*
X323850Y685800D03*
X323850Y641350D03*
X323850Y596900D03*
X323850Y552450D03*
X323850Y508000D03*
X323850Y463550D03*
X352425Y952500D03*
X352425Y908050D03*
X352425Y863600D03*
X352425Y819150D03*
X352425Y774700D03*
X352425Y730250D03*
X352425Y685800D03*
X352425Y641350D03*
X352425Y596900D03*
X352425Y552450D03*
X352425Y508000D03*
X352425Y463550D03*
X381000Y952500D03*
X381000Y908050D03*
X381000Y863600D03*
X381000Y819150D03*
X381000Y774700D03*
X381000Y730250D03*
X381000Y685800D03*
X381000Y641350D03*
X381000Y596900D03*
X381000Y552450D03*
X381000Y463550D03*
X381000Y508000D03*
X409575Y952500D03*
X409575Y863600D03*
X409575Y819150D03*
X409575Y908050D03*
X409575Y774700D03*
X409575Y730250D03*
X409575Y685800D03*
X409575Y641350D03*
X409575Y596900D03*
X409575Y552450D03*
X409575Y508000D03*
X409575Y463550D03*
X438150Y952500D03*
X438150Y863600D03*
X438150Y819150D03*
X438150Y908050D03*
X438150Y774700D03*
X438150Y730250D03*
X438150Y685800D03*
X438150Y641350D03*
X438150Y596900D03*
X438150Y552450D03*
X438150Y508000D03*
X438150Y463550D03*
X466725Y952500D03*
X466725Y908050D03*
X466725Y863600D03*
X466725Y819150D03*
X466725Y774700D03*
X466725Y730250D03*
X466725Y685800D03*
X466725Y641350D03*
X466725Y596900D03*
X466725Y552450D03*
X466725Y463550D03*
X466725Y508000D03*
X174625Y276225D03*
X339725Y276225D03*
X822325Y288925D03*
X136525Y288925D03*
X593725Y288925D03*
X365125Y288925D03*
X758825Y203200D03*
X758825Y85725D03*
X758825Y288925D03*
X304800Y101600D03*
X304800Y288925D03*
X238125Y288925D03*
X149225Y295275D03*
X835025Y295275D03*
X606425Y295275D03*
X377825Y295275D03*
X765175Y73025D03*
X765175Y190500D03*
X765175Y212725D03*
X765175Y295275D03*
X311150Y111125D03*
X311150Y295275D03*
X266700Y295275D03*
X196850Y22225D03*
X152400Y266700D03*
X111125Y266700D03*
X161925Y260350D03*
X85725Y288925D03*
X298450Y314325D03*
X390525Y336550D03*
X619125Y336550D03*
X523875Y314325D03*
X752475Y311150D03*
X847725Y336550D03*
X120650Y168275D03*
X765175Y60325D03*
X781050Y146050D03*
X781050Y266700D03*
X749300Y177800D03*
D23*
X184150Y247650D03*
D22*
X384175Y82550D03*
X127000Y339725D03*
X352425Y342900D03*
X584200Y342900D03*
X809625Y342900D03*
X133350Y22225D03*
X196850Y44450D03*
X225425Y104775D03*
X104775Y127000D03*
X704850Y241300D03*
X695325Y136525D03*
D23*
X349250Y69850D03*
X942975Y79375D03*
X927100Y130175D03*
X923925Y161925D03*
X920750Y193675D03*
X944563Y261938D03*
X946150Y227013D03*
X925513Y301625D03*
X909638Y342900D03*
X936625Y352425D03*
D22*
X806450Y57150D03*
X838200Y25400D03*
D23*
X882650Y22225D03*
X911225Y361950D03*
X898525Y384175D03*
D22*
X120650Y82550D03*
X123825Y117475D03*
X447675Y76200D03*
X495300Y952500D03*
X495300Y908050D03*
X495300Y863600D03*
X495300Y819150D03*
X495300Y774700D03*
X495300Y730250D03*
X495300Y685800D03*
X495300Y641350D03*
X495300Y596900D03*
X495300Y552450D03*
X495300Y508000D03*
X495300Y463550D03*
X523875Y952500D03*
X523875Y908050D03*
X523875Y863600D03*
X523875Y819150D03*
X523875Y774700D03*
X523875Y730250D03*
X523875Y685800D03*
X523875Y641350D03*
X523875Y596900D03*
X523875Y552450D03*
X523875Y463550D03*
X523875Y508000D03*
X552450Y952500D03*
X552450Y908050D03*
X552450Y863600D03*
X552450Y819150D03*
X552450Y774700D03*
X552450Y730250D03*
X552450Y685800D03*
X552450Y641350D03*
X552450Y596900D03*
X552450Y552450D03*
X552450Y508000D03*
X552450Y463550D03*
X581025Y952500D03*
X581025Y863600D03*
X581025Y908050D03*
X581025Y819150D03*
X581025Y774700D03*
X581025Y730250D03*
X581025Y685800D03*
X581025Y641350D03*
X581025Y552450D03*
X581025Y596900D03*
X581025Y463550D03*
X581025Y508000D03*
X609600Y952500D03*
X609600Y908050D03*
X609600Y863600D03*
X609600Y819150D03*
X609600Y774700D03*
X609600Y730250D03*
X609600Y685800D03*
X609600Y641350D03*
X609600Y596900D03*
X609600Y552450D03*
X609600Y508000D03*
X609600Y463550D03*
X638175Y952500D03*
X638175Y908050D03*
X638175Y863600D03*
X638175Y819150D03*
X638175Y774700D03*
X638175Y730250D03*
X638175Y685800D03*
X638175Y641350D03*
X638175Y596900D03*
X638175Y552450D03*
X638175Y508000D03*
X638175Y463550D03*
X666750Y952500D03*
X666750Y908050D03*
X666750Y863600D03*
X666750Y819150D03*
X666750Y774700D03*
X666750Y730250D03*
X666750Y685800D03*
X666750Y641350D03*
X666750Y596900D03*
X666750Y552450D03*
X666750Y508000D03*
X666750Y463550D03*
X695325Y952500D03*
X695325Y908050D03*
X695325Y863600D03*
X695325Y819150D03*
X695325Y774700D03*
X695325Y730250D03*
X695325Y685800D03*
X695325Y641350D03*
X695325Y596900D03*
X695325Y552450D03*
X695325Y463550D03*
X695325Y508000D03*
X403225Y276225D03*
X568325Y276225D03*
X107950Y142875D03*
X107950Y158750D03*
X352425Y85725D03*
X307975Y85725D03*
X238929Y86529D03*
X358775Y76200D03*
X307975Y76200D03*
X231775Y65700D03*
X368300Y142875D03*
X367919Y161925D03*
X184150Y190500D03*
X476250Y41275D03*
X450850Y34925D03*
X374650Y60325D03*
X28575Y88900D03*
X31750Y212725D03*
X60325Y212725D03*
X107950Y104775D03*
X184150Y73025D03*
X269875Y69850D03*
X844550Y288925D03*
X850900Y269875D03*
X866775Y250825D03*
X866775Y231775D03*
X866775Y212725D03*
X866775Y193675D03*
X866775Y177800D03*
X866775Y155575D03*
X123825Y282575D03*
X809625Y282575D03*
X581025Y282575D03*
X352425Y282575D03*
X298450Y25400D03*
X295275Y282575D03*
X209550Y282575D03*
X349250Y247650D03*
X346075Y142875D03*
X377825Y155575D03*
X365125Y66675D03*
X711200Y450850D03*
X723900Y504825D03*
X723900Y952500D03*
X723900Y908050D03*
X723900Y863600D03*
X723900Y819150D03*
X723900Y774700D03*
X723900Y730250D03*
X723900Y685800D03*
X723900Y641350D03*
X723900Y596900D03*
X723900Y552450D03*
X752475Y952500D03*
X752475Y863600D03*
X752475Y908050D03*
X752475Y819150D03*
X752475Y774700D03*
X752475Y730250D03*
X752475Y685800D03*
X752475Y641350D03*
X752475Y596900D03*
X752475Y552450D03*
X752475Y463550D03*
X752475Y508000D03*
X781050Y952500D03*
X781050Y908050D03*
X781050Y863600D03*
X781050Y819150D03*
X781050Y774700D03*
X781050Y730250D03*
X781050Y685800D03*
X781050Y641350D03*
X781050Y596900D03*
X781050Y552450D03*
X781050Y508000D03*
X781050Y463550D03*
X796925Y450850D03*
X796925Y498475D03*
X796925Y542925D03*
X809625Y952500D03*
X809625Y908050D03*
X809625Y863600D03*
X809625Y819150D03*
X809625Y774700D03*
X809625Y730250D03*
X809625Y685800D03*
X809625Y641350D03*
X809625Y596900D03*
X825500Y450850D03*
X825500Y498475D03*
X825500Y542925D03*
X825500Y587375D03*
X825500Y631825D03*
X825500Y942975D03*
X825500Y898525D03*
X825500Y809625D03*
X825500Y765175D03*
X825500Y720725D03*
X825500Y676275D03*
X825500Y854075D03*
X854075Y450850D03*
X854075Y942975D03*
X854075Y898525D03*
X854075Y854075D03*
X854075Y809625D03*
X854075Y765175D03*
X854075Y720725D03*
X854075Y676275D03*
X854075Y631825D03*
X854075Y587375D03*
X854075Y542925D03*
X854075Y498475D03*
X882650Y450850D03*
X882650Y942975D03*
X882650Y898525D03*
X882650Y854075D03*
X882650Y809625D03*
X882650Y765175D03*
X882650Y720725D03*
X882650Y676275D03*
X882650Y631825D03*
X882650Y587375D03*
X882650Y542925D03*
X882650Y498475D03*
X911225Y450850D03*
X911225Y942975D03*
X911225Y898525D03*
X911225Y854075D03*
X911225Y809625D03*
X911225Y765175D03*
X911225Y720725D03*
X911225Y676275D03*
X911225Y631825D03*
X911225Y587375D03*
X911225Y542925D03*
X911225Y498475D03*
X631825Y276225D03*
X796925Y276225D03*
X968375Y114300D03*
X976708Y450850D03*
X955675Y482600D03*
X955675Y619125D03*
X876300Y355600D03*
X812800Y457200D03*
X809625Y574675D03*
X869950Y25400D03*
X898525Y57150D03*
X962025Y527050D03*
X733425Y36513D03*
X733425Y361950D03*
X733425Y393700D03*
X727075Y485775D03*
X857250Y149225D03*
X866775Y127000D03*
X863600Y98425D03*
X863600Y79375D03*
X752475Y111125D03*
X752475Y165100D03*
X542925Y13692D03*
X390525Y60325D03*
X454025Y165100D03*
X463550Y13692D03*
M02*
