G04 EAGLE Gerber RS-274X export*
G75*
%MOMM*%
%FSLAX34Y34*%
%LPD*%
%INSolderpaste Top*%
%IPPOS*%
%AMOC8*
5,1,8,0,0,1.08239X$1,22.5*%
G01*
%ADD10R,1.500000X1.600000*%
%ADD11R,1.200000X1.200000*%
%ADD12R,1.100000X1.400000*%
%ADD13R,1.300000X1.600000*%
%ADD14R,2.400000X2.000000*%
%ADD15R,2.308000X0.500000*%
%ADD16R,1.500000X0.400000*%
%ADD17R,1.000000X1.400000*%
%ADD18R,1.400000X1.000000*%
%ADD19R,1.500000X1.300000*%
%ADD20R,1.300000X1.500000*%
%ADD21R,1.500000X1.500000*%
%ADD22R,1.500000X0.550000*%
%ADD23R,0.550000X1.500000*%


D10*
X457200Y122950D03*
D11*
X447200Y89700D03*
X467200Y89700D03*
D12*
X85250Y339725D03*
X105250Y339725D03*
X313850Y342900D03*
X333850Y342900D03*
X542450Y342900D03*
X562450Y342900D03*
D13*
X235425Y38100D03*
X215425Y38100D03*
D12*
X743425Y241300D03*
X723425Y241300D03*
D14*
X82625Y193225D03*
D15*
X88265Y165225D03*
X88265Y157225D03*
X88265Y149225D03*
X88265Y141225D03*
X88265Y133225D03*
D14*
X27625Y193225D03*
X82625Y105225D03*
X27625Y105225D03*
D16*
X210875Y65700D03*
X210875Y72200D03*
X210875Y78700D03*
X210875Y85200D03*
X210875Y91700D03*
X210875Y98200D03*
X210875Y104700D03*
X210875Y111200D03*
X210875Y117700D03*
X210875Y124200D03*
X210875Y130700D03*
X210875Y137200D03*
X210875Y143700D03*
X210875Y150200D03*
X138375Y150200D03*
X138375Y143700D03*
X138375Y137200D03*
X138375Y130700D03*
X138375Y124200D03*
X138375Y117700D03*
X138375Y111200D03*
X138375Y104700D03*
X138375Y98200D03*
X138375Y91700D03*
X138375Y85200D03*
X138375Y78700D03*
X138375Y72200D03*
X138375Y65700D03*
D11*
X25400Y975700D03*
X25400Y954700D03*
X282575Y975700D03*
X282575Y954700D03*
X311150Y975700D03*
X311150Y954700D03*
X339725Y975700D03*
X339725Y954700D03*
X368300Y975700D03*
X368300Y954700D03*
X396875Y975700D03*
X396875Y954700D03*
X425450Y975700D03*
X425450Y954700D03*
X454025Y975700D03*
X454025Y954700D03*
X482600Y975700D03*
X482600Y954700D03*
X511175Y975700D03*
X511175Y954700D03*
X539750Y975700D03*
X539750Y954700D03*
X53975Y975700D03*
X53975Y954700D03*
X568325Y975700D03*
X568325Y954700D03*
X596900Y975700D03*
X596900Y954700D03*
X625475Y975700D03*
X625475Y954700D03*
X654050Y975700D03*
X654050Y954700D03*
X682625Y975700D03*
X682625Y954700D03*
X82550Y975700D03*
X82550Y954700D03*
X111125Y975700D03*
X111125Y954700D03*
X139700Y975700D03*
X139700Y954700D03*
X168275Y975700D03*
X168275Y954700D03*
X196850Y975700D03*
X196850Y954700D03*
X225425Y975700D03*
X225425Y954700D03*
X254000Y975700D03*
X254000Y954700D03*
D17*
X889000Y341200D03*
X898500Y319200D03*
X879500Y319200D03*
X923925Y338025D03*
X933425Y316025D03*
X914425Y316025D03*
X958850Y328500D03*
X968350Y306500D03*
X949350Y306500D03*
D18*
X953975Y276225D03*
X931975Y266725D03*
X931975Y285725D03*
X953975Y241300D03*
X931975Y231800D03*
X931975Y250800D03*
X957150Y206375D03*
X935150Y196875D03*
X935150Y215875D03*
X960325Y171450D03*
X938325Y161950D03*
X938325Y180950D03*
X963500Y136525D03*
X941500Y127025D03*
X941500Y146025D03*
D19*
X31750Y288950D03*
X31750Y307950D03*
X60325Y288950D03*
X60325Y307950D03*
D12*
X879000Y288925D03*
X899000Y288925D03*
X879000Y269875D03*
X899000Y269875D03*
X879000Y250825D03*
X899000Y250825D03*
X879000Y231775D03*
X899000Y231775D03*
X879000Y212725D03*
X899000Y212725D03*
X879000Y193675D03*
X899000Y193675D03*
X879000Y174625D03*
X899000Y174625D03*
X879000Y155575D03*
X899000Y155575D03*
D20*
X155600Y22225D03*
X174600Y22225D03*
X393725Y155575D03*
X412725Y155575D03*
D21*
X60325Y230150D03*
X60325Y265150D03*
X31750Y230150D03*
X31750Y265150D03*
D22*
X328475Y110550D03*
X328475Y102550D03*
X328475Y94550D03*
X328475Y86550D03*
X328475Y78550D03*
X328475Y70550D03*
X328475Y62550D03*
X328475Y54550D03*
D23*
X343475Y39550D03*
X351475Y39550D03*
X359475Y39550D03*
X367475Y39550D03*
X375475Y39550D03*
X383475Y39550D03*
X391475Y39550D03*
X399475Y39550D03*
D22*
X414475Y54550D03*
X414475Y62550D03*
X414475Y70550D03*
X414475Y78550D03*
X414475Y86550D03*
X414475Y94550D03*
X414475Y102550D03*
X414475Y110550D03*
D23*
X399475Y125550D03*
X391475Y125550D03*
X383475Y125550D03*
X375475Y125550D03*
X367475Y125550D03*
X359475Y125550D03*
X351475Y125550D03*
X343475Y125550D03*
D11*
X711200Y975700D03*
X711200Y954700D03*
X739775Y975700D03*
X739775Y954700D03*
X768350Y975700D03*
X768350Y954700D03*
X796925Y975700D03*
X796925Y954700D03*
X825500Y975700D03*
X825500Y954700D03*
X854075Y975700D03*
X854075Y954700D03*
X882650Y975700D03*
X882650Y954700D03*
X911225Y975700D03*
X911225Y954700D03*
X25400Y931250D03*
X25400Y910250D03*
X53975Y931250D03*
X53975Y910250D03*
X82550Y931250D03*
X82550Y910250D03*
X111125Y931250D03*
X111125Y910250D03*
X139700Y931250D03*
X139700Y910250D03*
X168275Y931250D03*
X168275Y910250D03*
X196850Y931250D03*
X196850Y910250D03*
X225425Y931250D03*
X225425Y910250D03*
X254000Y931250D03*
X254000Y910250D03*
X282575Y931250D03*
X282575Y910250D03*
X311150Y931250D03*
X311150Y910250D03*
X339725Y931250D03*
X339725Y910250D03*
X368300Y931250D03*
X368300Y910250D03*
X396875Y931250D03*
X396875Y910250D03*
X425450Y931250D03*
X425450Y910250D03*
X454025Y931250D03*
X454025Y910250D03*
X482600Y931250D03*
X482600Y910250D03*
X511175Y931250D03*
X511175Y910250D03*
X539750Y931250D03*
X539750Y910250D03*
X568325Y931250D03*
X568325Y910250D03*
X596900Y931250D03*
X596900Y910250D03*
X625475Y931250D03*
X625475Y910250D03*
X654050Y931250D03*
X654050Y910250D03*
X682625Y931250D03*
X682625Y910250D03*
X711200Y931250D03*
X711200Y910250D03*
X739775Y931250D03*
X739775Y910250D03*
X768350Y931250D03*
X768350Y910250D03*
X796925Y931250D03*
X796925Y910250D03*
X825500Y931250D03*
X825500Y910250D03*
X854075Y931250D03*
X854075Y910250D03*
X882650Y931250D03*
X882650Y910250D03*
X911225Y931250D03*
X911225Y910250D03*
X25400Y886800D03*
X25400Y865800D03*
X53975Y886800D03*
X53975Y865800D03*
X82550Y886800D03*
X82550Y865800D03*
X111125Y886800D03*
X111125Y865800D03*
X139700Y886800D03*
X139700Y865800D03*
X168275Y886800D03*
X168275Y865800D03*
X196850Y886800D03*
X196850Y865800D03*
X225425Y886800D03*
X225425Y865800D03*
X254000Y886800D03*
X254000Y865800D03*
X282575Y886800D03*
X282575Y865800D03*
X311150Y886800D03*
X311150Y865800D03*
X339725Y886800D03*
X339725Y865800D03*
X368300Y886800D03*
X368300Y865800D03*
X396875Y886800D03*
X396875Y865800D03*
X425450Y886800D03*
X425450Y865800D03*
X454025Y886800D03*
X454025Y865800D03*
X482600Y886800D03*
X482600Y865800D03*
X511175Y886800D03*
X511175Y865800D03*
X539750Y886800D03*
X539750Y865800D03*
X568325Y886800D03*
X568325Y865800D03*
X596900Y886800D03*
X596900Y865800D03*
X625475Y886800D03*
X625475Y865800D03*
X654050Y886800D03*
X654050Y865800D03*
X682625Y886800D03*
X682625Y865800D03*
X711200Y886800D03*
X711200Y865800D03*
X739775Y886800D03*
X739775Y865800D03*
X768350Y886800D03*
X768350Y865800D03*
X796925Y886800D03*
X796925Y865800D03*
X825500Y886800D03*
X825500Y865800D03*
X854075Y886800D03*
X854075Y865800D03*
X882650Y886800D03*
X882650Y865800D03*
X911225Y886800D03*
X911225Y865800D03*
X25400Y842350D03*
X25400Y821350D03*
X53975Y842350D03*
X53975Y821350D03*
X82550Y842350D03*
X82550Y821350D03*
X111125Y842350D03*
X111125Y821350D03*
X139700Y842350D03*
X139700Y821350D03*
X168275Y842350D03*
X168275Y821350D03*
X196850Y842350D03*
X196850Y821350D03*
X225425Y842350D03*
X225425Y821350D03*
X254000Y842350D03*
X254000Y821350D03*
X282575Y842350D03*
X282575Y821350D03*
X311150Y842350D03*
X311150Y821350D03*
X339725Y842350D03*
X339725Y821350D03*
X368300Y842350D03*
X368300Y821350D03*
X396875Y842350D03*
X396875Y821350D03*
X425450Y842350D03*
X425450Y821350D03*
X454025Y842350D03*
X454025Y821350D03*
X482600Y842350D03*
X482600Y821350D03*
X511175Y842350D03*
X511175Y821350D03*
X539750Y842350D03*
X539750Y821350D03*
X568325Y842350D03*
X568325Y821350D03*
X596900Y842350D03*
X596900Y821350D03*
X625475Y842350D03*
X625475Y821350D03*
X654050Y842350D03*
X654050Y821350D03*
X682625Y842350D03*
X682625Y821350D03*
X711200Y842350D03*
X711200Y821350D03*
X739775Y842350D03*
X739775Y821350D03*
X768350Y842350D03*
X768350Y821350D03*
X796925Y842350D03*
X796925Y821350D03*
X825500Y842350D03*
X825500Y821350D03*
X854075Y842350D03*
X854075Y821350D03*
X882650Y842350D03*
X882650Y821350D03*
X911225Y842350D03*
X911225Y821350D03*
X25400Y797900D03*
X25400Y776900D03*
X53975Y797900D03*
X53975Y776900D03*
X82550Y797900D03*
X82550Y776900D03*
X111125Y797900D03*
X111125Y776900D03*
X139700Y797900D03*
X139700Y776900D03*
X168275Y797900D03*
X168275Y776900D03*
X196850Y797900D03*
X196850Y776900D03*
X225425Y797900D03*
X225425Y776900D03*
X254000Y797900D03*
X254000Y776900D03*
X282575Y797900D03*
X282575Y776900D03*
X311150Y797900D03*
X311150Y776900D03*
X339725Y797900D03*
X339725Y776900D03*
X368300Y797900D03*
X368300Y776900D03*
X396875Y797900D03*
X396875Y776900D03*
X425450Y797900D03*
X425450Y776900D03*
X454025Y797900D03*
X454025Y776900D03*
X482600Y797900D03*
X482600Y776900D03*
X511175Y797900D03*
X511175Y776900D03*
X539750Y797900D03*
X539750Y776900D03*
X568325Y797900D03*
X568325Y776900D03*
X596900Y797900D03*
X596900Y776900D03*
X625475Y797900D03*
X625475Y776900D03*
X654050Y797900D03*
X654050Y776900D03*
X682625Y797900D03*
X682625Y776900D03*
X711200Y797900D03*
X711200Y776900D03*
X739775Y797900D03*
X739775Y776900D03*
X768350Y797900D03*
X768350Y776900D03*
X796925Y797900D03*
X796925Y776900D03*
X825500Y797900D03*
X825500Y776900D03*
X854075Y797900D03*
X854075Y776900D03*
X882650Y797900D03*
X882650Y776900D03*
X911225Y797900D03*
X911225Y776900D03*
X25400Y753450D03*
X25400Y732450D03*
X53975Y753450D03*
X53975Y732450D03*
X82550Y753450D03*
X82550Y732450D03*
X111125Y753450D03*
X111125Y732450D03*
X139700Y753450D03*
X139700Y732450D03*
X168275Y753450D03*
X168275Y732450D03*
X196850Y753450D03*
X196850Y732450D03*
X225425Y753450D03*
X225425Y732450D03*
X254000Y753450D03*
X254000Y732450D03*
X282575Y753450D03*
X282575Y732450D03*
X311150Y753450D03*
X311150Y732450D03*
X339725Y753450D03*
X339725Y732450D03*
X368300Y753450D03*
X368300Y732450D03*
X396875Y753450D03*
X396875Y732450D03*
X425450Y753450D03*
X425450Y732450D03*
X454025Y753450D03*
X454025Y732450D03*
X482600Y753450D03*
X482600Y732450D03*
X511175Y753450D03*
X511175Y732450D03*
X539750Y753450D03*
X539750Y732450D03*
X568325Y753450D03*
X568325Y732450D03*
X596900Y753450D03*
X596900Y732450D03*
X625475Y753450D03*
X625475Y732450D03*
X654050Y753450D03*
X654050Y732450D03*
X682625Y753450D03*
X682625Y732450D03*
X711200Y753450D03*
X711200Y732450D03*
X739775Y753450D03*
X739775Y732450D03*
X768350Y753450D03*
X768350Y732450D03*
X796925Y753450D03*
X796925Y732450D03*
X825500Y753450D03*
X825500Y732450D03*
X854075Y753450D03*
X854075Y732450D03*
X882650Y753450D03*
X882650Y732450D03*
X911225Y753450D03*
X911225Y732450D03*
X25400Y709000D03*
X25400Y688000D03*
X53975Y709000D03*
X53975Y688000D03*
X82550Y709000D03*
X82550Y688000D03*
X111125Y709000D03*
X111125Y688000D03*
X139700Y709000D03*
X139700Y688000D03*
X168275Y709000D03*
X168275Y688000D03*
X196850Y709000D03*
X196850Y688000D03*
X225425Y709000D03*
X225425Y688000D03*
X254000Y709000D03*
X254000Y688000D03*
X282575Y709000D03*
X282575Y688000D03*
X311150Y709000D03*
X311150Y688000D03*
X339725Y709000D03*
X339725Y688000D03*
X368300Y709000D03*
X368300Y688000D03*
X396875Y709000D03*
X396875Y688000D03*
X425450Y709000D03*
X425450Y688000D03*
X454025Y709000D03*
X454025Y688000D03*
X482600Y709000D03*
X482600Y688000D03*
X511175Y709000D03*
X511175Y688000D03*
X539750Y709000D03*
X539750Y688000D03*
X568325Y709000D03*
X568325Y688000D03*
X596900Y709000D03*
X596900Y688000D03*
X625475Y709000D03*
X625475Y688000D03*
X654050Y709000D03*
X654050Y688000D03*
X682625Y709000D03*
X682625Y688000D03*
X711200Y709000D03*
X711200Y688000D03*
X739775Y709000D03*
X739775Y688000D03*
X768350Y709000D03*
X768350Y688000D03*
X796925Y709000D03*
X796925Y688000D03*
X825500Y709000D03*
X825500Y688000D03*
X854075Y709000D03*
X854075Y688000D03*
X882650Y709000D03*
X882650Y688000D03*
X911225Y709000D03*
X911225Y688000D03*
X25400Y664550D03*
X25400Y643550D03*
X53975Y664550D03*
X53975Y643550D03*
X82550Y664550D03*
X82550Y643550D03*
X111125Y664550D03*
X111125Y643550D03*
X139700Y664550D03*
X139700Y643550D03*
X168275Y664550D03*
X168275Y643550D03*
X196850Y664550D03*
X196850Y643550D03*
X225425Y664550D03*
X225425Y643550D03*
X254000Y664550D03*
X254000Y643550D03*
X282575Y664550D03*
X282575Y643550D03*
X311150Y664550D03*
X311150Y643550D03*
X339725Y664550D03*
X339725Y643550D03*
X368300Y664550D03*
X368300Y643550D03*
X396875Y664550D03*
X396875Y643550D03*
X425450Y664550D03*
X425450Y643550D03*
X454025Y664550D03*
X454025Y643550D03*
X482600Y664550D03*
X482600Y643550D03*
X511175Y664550D03*
X511175Y643550D03*
X539750Y664550D03*
X539750Y643550D03*
X568325Y664550D03*
X568325Y643550D03*
X596900Y664550D03*
X596900Y643550D03*
X625475Y664550D03*
X625475Y643550D03*
X654050Y664550D03*
X654050Y643550D03*
X682625Y664550D03*
X682625Y643550D03*
X711200Y664550D03*
X711200Y643550D03*
X739775Y664550D03*
X739775Y643550D03*
X768350Y664550D03*
X768350Y643550D03*
X796925Y664550D03*
X796925Y643550D03*
X825500Y664550D03*
X825500Y643550D03*
X854075Y664550D03*
X854075Y643550D03*
X882650Y664550D03*
X882650Y643550D03*
X911225Y664550D03*
X911225Y643550D03*
X25400Y620100D03*
X25400Y599100D03*
X53975Y620100D03*
X53975Y599100D03*
X82550Y620100D03*
X82550Y599100D03*
X111125Y620100D03*
X111125Y599100D03*
X139700Y620100D03*
X139700Y599100D03*
X168275Y620100D03*
X168275Y599100D03*
X196850Y620100D03*
X196850Y599100D03*
X225425Y620100D03*
X225425Y599100D03*
X254000Y620100D03*
X254000Y599100D03*
X282575Y620100D03*
X282575Y599100D03*
X311150Y620100D03*
X311150Y599100D03*
X339725Y620100D03*
X339725Y599100D03*
X368300Y620100D03*
X368300Y599100D03*
X396875Y620100D03*
X396875Y599100D03*
X425450Y620100D03*
X425450Y599100D03*
X454025Y620100D03*
X454025Y599100D03*
X482600Y620100D03*
X482600Y599100D03*
X511175Y620100D03*
X511175Y599100D03*
X539750Y620100D03*
X539750Y599100D03*
X568325Y620100D03*
X568325Y599100D03*
X596900Y620100D03*
X596900Y599100D03*
X625475Y620100D03*
X625475Y599100D03*
X654050Y620100D03*
X654050Y599100D03*
X682625Y620100D03*
X682625Y599100D03*
X711200Y620100D03*
X711200Y599100D03*
X739775Y620100D03*
X739775Y599100D03*
X768350Y620100D03*
X768350Y599100D03*
X796925Y620100D03*
X796925Y599100D03*
X825500Y620100D03*
X825500Y599100D03*
X854075Y620100D03*
X854075Y599100D03*
X882650Y620100D03*
X882650Y599100D03*
X911225Y620100D03*
X911225Y599100D03*
X25400Y575650D03*
X25400Y554650D03*
X53975Y575650D03*
X53975Y554650D03*
X82550Y575650D03*
X82550Y554650D03*
X111125Y575650D03*
X111125Y554650D03*
X139700Y575650D03*
X139700Y554650D03*
X168275Y575650D03*
X168275Y554650D03*
X196850Y575650D03*
X196850Y554650D03*
X225425Y575650D03*
X225425Y554650D03*
X254000Y575650D03*
X254000Y554650D03*
X282575Y575650D03*
X282575Y554650D03*
X311150Y575650D03*
X311150Y554650D03*
X339725Y575650D03*
X339725Y554650D03*
X368300Y575650D03*
X368300Y554650D03*
X396875Y575650D03*
X396875Y554650D03*
X425450Y575650D03*
X425450Y554650D03*
X454025Y575650D03*
X454025Y554650D03*
X482600Y575650D03*
X482600Y554650D03*
X511175Y575650D03*
X511175Y554650D03*
X539750Y575650D03*
X539750Y554650D03*
X568325Y575650D03*
X568325Y554650D03*
X596900Y575650D03*
X596900Y554650D03*
X625475Y575650D03*
X625475Y554650D03*
X654050Y575650D03*
X654050Y554650D03*
X682625Y575650D03*
X682625Y554650D03*
X711200Y575650D03*
X711200Y554650D03*
X739775Y575650D03*
X739775Y554650D03*
X768350Y575650D03*
X768350Y554650D03*
X796925Y575650D03*
X796925Y554650D03*
X825500Y575650D03*
X825500Y554650D03*
X854075Y575650D03*
X854075Y554650D03*
X882650Y575650D03*
X882650Y554650D03*
X911225Y575650D03*
X911225Y554650D03*
X25400Y531200D03*
X25400Y510200D03*
X53975Y531200D03*
X53975Y510200D03*
X82550Y531200D03*
X82550Y510200D03*
X111125Y531200D03*
X111125Y510200D03*
X139700Y531200D03*
X139700Y510200D03*
X168275Y531200D03*
X168275Y510200D03*
X196850Y531200D03*
X196850Y510200D03*
X225425Y531200D03*
X225425Y510200D03*
X254000Y531200D03*
X254000Y510200D03*
X282575Y531200D03*
X282575Y510200D03*
X311150Y531200D03*
X311150Y510200D03*
X339725Y531200D03*
X339725Y510200D03*
X368300Y531200D03*
X368300Y510200D03*
X396875Y531200D03*
X396875Y510200D03*
X425450Y531200D03*
X425450Y510200D03*
X454025Y531200D03*
X454025Y510200D03*
X482600Y531200D03*
X482600Y510200D03*
X511175Y531200D03*
X511175Y510200D03*
X539750Y531200D03*
X539750Y510200D03*
X568325Y531200D03*
X568325Y510200D03*
X596900Y531200D03*
X596900Y510200D03*
X625475Y531200D03*
X625475Y510200D03*
X654050Y531200D03*
X654050Y510200D03*
X682625Y531200D03*
X682625Y510200D03*
X711200Y531200D03*
X711200Y510200D03*
X739775Y531200D03*
X739775Y510200D03*
X768350Y531200D03*
X768350Y510200D03*
X796925Y531200D03*
X796925Y510200D03*
X825500Y531200D03*
X825500Y510200D03*
X854075Y531200D03*
X854075Y510200D03*
X882650Y531200D03*
X882650Y510200D03*
X911225Y531200D03*
X911225Y510200D03*
X25400Y486750D03*
X25400Y465750D03*
X53975Y486750D03*
X53975Y465750D03*
X82550Y486750D03*
X82550Y465750D03*
X111125Y486750D03*
X111125Y465750D03*
X139700Y486750D03*
X139700Y465750D03*
X168275Y486750D03*
X168275Y465750D03*
X196850Y486750D03*
X196850Y465750D03*
X225425Y486750D03*
X225425Y465750D03*
X254000Y486750D03*
X254000Y465750D03*
X282575Y486750D03*
X282575Y465750D03*
X311150Y486750D03*
X311150Y465750D03*
X339725Y486750D03*
X339725Y465750D03*
X368300Y486750D03*
X368300Y465750D03*
X396875Y486750D03*
X396875Y465750D03*
X425450Y486750D03*
X425450Y465750D03*
X454025Y486750D03*
X454025Y465750D03*
X482600Y486750D03*
X482600Y465750D03*
X511175Y486750D03*
X511175Y465750D03*
X539750Y486750D03*
X539750Y465750D03*
X568325Y486750D03*
X568325Y465750D03*
X596900Y486750D03*
X596900Y465750D03*
X625475Y486750D03*
X625475Y465750D03*
X654050Y486750D03*
X654050Y465750D03*
X682625Y486750D03*
X682625Y465750D03*
X711200Y486750D03*
X711200Y465750D03*
X739775Y486750D03*
X739775Y465750D03*
X768350Y486750D03*
X768350Y465750D03*
X796925Y486750D03*
X796925Y465750D03*
X825500Y486750D03*
X825500Y465750D03*
X854075Y486750D03*
X854075Y465750D03*
X882650Y486750D03*
X882650Y465750D03*
X911225Y486750D03*
X911225Y465750D03*
D12*
X771050Y342900D03*
X791050Y342900D03*
D18*
X966675Y101600D03*
X944675Y92100D03*
X944675Y111100D03*
D12*
X879000Y136525D03*
X899000Y136525D03*
X879000Y117475D03*
X899000Y117475D03*
X879000Y98425D03*
X899000Y98425D03*
X879000Y79375D03*
X899000Y79375D03*
D17*
X898525Y17575D03*
X889025Y39575D03*
X908025Y39575D03*
X857250Y17575D03*
X847750Y39575D03*
X866750Y39575D03*
X815975Y17575D03*
X806475Y39575D03*
X825475Y39575D03*
D12*
X737075Y136525D03*
X717075Y136525D03*
M02*
