M48
;GenerationSoftware,Autodesk,EAGLE,9.6.2*%
;CreationDate,2021-03-04T15:32:46Z*%
FMAT,2
ICI,OFF
METRIC,TZ,000.000
T7C0.300
T6C0.350
T5C0.610
T4C0.813
T3C1.000
T2C1.016
T1C2.800
%
G90
M71
T1
X95250Y3810
X95567Y96520
X3810Y3810
T2
X41313Y25159
X49530Y15240
X49530Y12700
X49530Y10160
X49530Y7620
X49530Y5080
X49530Y2540
X36792Y25159
X28257Y16828
X25717Y16828
X23177Y16828
X46634Y18656
X51156Y18656
X46634Y25159
X61874Y18656
X66396Y18656
X58776Y25159
X61874Y25159
X66396Y25159
X21196Y25121
X21196Y20599
X27699Y25121
X27699Y20599
X54254Y18656
X58776Y18656
X54254Y25159
X51156Y25159
X33020Y15557
X33020Y18098
X36792Y18656
X41313Y18656
T3
X5762Y17123
X5762Y12722
T4
X66993Y6858
X66993Y3302
X58102Y6858
X58102Y3302
T5
X26987Y4128
X26987Y9208
T6
X94297Y7937
X18415Y24765
X92710Y13017
X92392Y16192
X92075Y19368
X94456Y26194
X94615Y22701
X90964Y34290
X93662Y35243
X3810Y95250
X3810Y91122
X91122Y36195
X89852Y38418
X88265Y2223
X34925Y6985
X92551Y30162
T7
X6667Y68580
X6667Y64135
X6667Y59690
X6667Y55245
X6667Y50800
X6667Y46355
X9525Y95250
X9525Y90805
X9525Y86360
X9525Y81915
X9525Y77470
X9525Y73025
X9525Y68580
X9525Y64135
X9525Y59690
X9525Y55245
X9525Y50800
X9525Y46355
X12382Y95250
X12382Y90805
X12382Y86360
X12382Y81915
X12382Y77470
X12382Y73025
X12382Y68580
X12382Y64135
X12382Y59690
X12382Y55245
X12382Y50800
X12382Y46355
X15240Y95250
X15240Y90805
X15240Y86360
X15240Y81915
X15240Y77470
X15240Y73025
X15240Y68580
X15240Y64135
X15240Y59690
X15240Y55245
X15240Y50800
X15240Y46355
X18098Y95250
X18098Y90805
X18098Y86360
X18098Y81915
X18098Y77470
X18098Y73025
X18098Y68580
X18098Y64135
X18098Y59690
X18098Y55245
X18098Y50800
X18098Y46355
X20955Y95250
X20955Y90805
X20955Y86360
X20955Y81915
X20955Y77470
X20955Y73025
X20955Y68580
X20955Y64135
X20955Y59690
X20955Y55245
X20955Y50800
X20955Y46355
X23812Y90805
X23812Y95250
X23812Y86360
X23812Y81915
X23812Y77470
X23812Y73025
X23812Y68580
X23812Y64135
X23812Y59690
X23812Y55245
X23812Y50800
X23812Y46355
X26670Y95250
X26670Y90805
X26670Y86360
X26670Y81915
X26670Y77470
X26670Y73025
X26670Y68580
X26670Y64135
X26670Y59690
X26670Y55245
X26670Y50800
X26670Y46355
X29527Y95250
X29527Y90805
X29527Y86360
X29527Y81915
X29527Y77470
X29527Y73025
X29527Y68580
X29527Y64135
X29527Y55245
X29527Y59690
X29527Y50800
X29527Y46355
X32385Y90805
X32385Y95250
X32385Y86360
X32385Y81915
X32385Y77470
X32385Y73025
X32385Y68580
X32385Y64135
X32385Y59690
X32385Y55245
X32385Y50800
X32385Y46355
X35243Y95250
X35243Y90805
X35243Y86360
X35243Y81915
X35243Y77470
X35243Y73025
X35243Y68580
X35243Y64135
X35243Y59690
X35243Y55245
X35243Y50800
X35243Y46355
X38100Y95250
X38100Y90805
X38100Y86360
X38100Y81915
X38100Y77470
X38100Y73025
X38100Y68580
X38100Y64135
X38100Y59690
X38100Y55245
X38100Y46355
X38100Y50800
X40958Y95250
X40958Y86360
X40958Y81915
X40958Y90805
X40958Y77470
X40958Y73025
X40958Y68580
X40958Y64135
X40958Y59690
X40958Y55245
X40958Y50800
X40958Y46355
X43815Y95250
X43815Y86360
X43815Y81915
X43815Y90805
X43815Y77470
X43815Y73025
X43815Y68580
X43815Y64135
X43815Y59690
X43815Y55245
X43815Y50800
X43815Y46355
X46672Y95250
X46672Y90805
X46672Y86360
X46672Y81915
X46672Y77470
X46672Y73025
X46672Y68580
X46672Y64135
X46672Y59690
X46672Y55245
X46672Y46355
X46672Y50800
X17463Y27622
X33973Y27622
X82233Y28892
X13652Y28892
X59372Y28892
X36513Y28892
X75883Y20320
X75883Y8573
X75883Y28892
X30480Y10160
X30480Y28892
X23812Y28892
X14922Y29527
X83503Y29527
X60642Y29527
X37783Y29527
X76518Y7302
X76518Y19050
X76518Y21273
X76518Y29527
X31115Y11112
X31115Y29527
X26670Y29527
X19685Y2223
X15240Y26670
X11112Y26670
X16192Y26035
X8573Y28892
X29845Y31432
X39053Y33655
X61912Y33655
X52387Y31432
X75248Y31115
X84773Y33655
X12065Y16828
X76518Y6032
X78105Y14605
X78105Y26670
X74930Y17780
X38418Y8255
X12700Y33973
X35243Y34290
X58420Y34290
X80963Y34290
X13335Y2223
X19685Y4445
X22542Y10478
X10478Y12700
X70485Y24130
X69533Y13652
X80645Y5715
X83820Y2540
X12065Y8255
X12382Y11747
X44767Y7620
X49530Y95250
X49530Y90805
X49530Y86360
X49530Y81915
X49530Y77470
X49530Y73025
X49530Y68580
X49530Y64135
X49530Y59690
X49530Y55245
X49530Y50800
X49530Y46355
X52387Y95250
X52387Y90805
X52387Y86360
X52387Y81915
X52387Y77470
X52387Y73025
X52387Y68580
X52387Y64135
X52387Y59690
X52387Y55245
X52387Y46355
X52387Y50800
X55245Y95250
X55245Y90805
X55245Y86360
X55245Y81915
X55245Y77470
X55245Y73025
X55245Y68580
X55245Y64135
X55245Y59690
X55245Y55245
X55245Y50800
X55245Y46355
X58102Y95250
X58102Y86360
X58102Y90805
X58102Y81915
X58102Y77470
X58102Y73025
X58102Y68580
X58102Y64135
X58102Y55245
X58102Y59690
X58102Y46355
X58102Y50800
X60960Y95250
X60960Y90805
X60960Y86360
X60960Y81915
X60960Y77470
X60960Y73025
X60960Y68580
X60960Y64135
X60960Y59690
X60960Y55245
X60960Y50800
X60960Y46355
X63817Y95250
X63817Y90805
X63817Y86360
X63817Y81915
X63817Y77470
X63817Y73025
X63817Y68580
X63817Y64135
X63817Y59690
X63817Y55245
X63817Y50800
X63817Y46355
X66675Y95250
X66675Y90805
X66675Y86360
X66675Y81915
X66675Y77470
X66675Y73025
X66675Y68580
X66675Y64135
X66675Y59690
X66675Y55245
X66675Y50800
X66675Y46355
X69533Y95250
X69533Y90805
X69533Y86360
X69533Y81915
X69533Y77470
X69533Y73025
X69533Y68580
X69533Y64135
X69533Y59690
X69533Y55245
X69533Y46355
X69533Y50800
X40323Y27622
X56832Y27622
X10795Y14287
X10795Y15875
X35243Y8573
X30797Y8573
X23893Y8653
X35878Y7620
X30797Y7620
X23177Y6570
X36830Y14287
X36792Y16192
X18415Y19050
X47625Y4128
X45085Y3492
X37465Y6032
X2857Y8890
X3175Y21273
X6032Y21273
X10795Y10478
X18415Y7302
X26987Y6985
X84455Y28892
X85090Y26987
X86678Y25082
X86678Y23177
X86678Y21273
X86678Y19368
X86678Y17780
X86678Y15557
X12382Y28257
X80963Y28257
X58102Y28257
X35243Y28257
X29845Y2540
X29527Y28257
X20955Y28257
X34925Y24765
X34608Y14287
X37783Y15557
X36513Y6667
X71120Y45085
X72390Y50482
X72390Y95250
X72390Y90805
X72390Y86360
X72390Y81915
X72390Y77470
X72390Y73025
X72390Y68580
X72390Y64135
X72390Y59690
X72390Y55245
X75248Y95250
X75248Y86360
X75248Y90805
X75248Y81915
X75248Y77470
X83820Y45720
X75248Y68580
X75248Y64135
X75248Y59690
X75248Y55245
X75248Y46355
X75248Y50800
X78105Y95250
X78105Y90805
X78105Y86360
X78105Y81915
X78105Y77470
X78105Y73025
X78105Y68580
X78105Y64135
X78105Y59690
X78105Y55245
X78105Y50800
X78105Y46355
X79693Y45085
X79693Y49847
X79693Y54292
X80963Y95250
X80963Y90805
X80963Y86360
X80963Y81915
X80963Y77470
X80963Y73025
X80963Y68580
X80963Y64135
X80963Y59690
X82550Y45085
X82550Y49847
X82550Y54292
X82550Y58737
X82550Y63182
X82550Y94297
X82550Y89852
X82550Y80963
X82550Y76518
X82550Y72073
X82550Y67628
X82550Y85408
X85408Y45085
X85408Y94297
X85408Y89852
X85408Y85408
X85408Y80963
X85408Y76518
X85408Y72073
X85408Y67628
X85408Y63182
X85408Y58737
X85408Y54292
X85408Y49847
X88265Y45085
X88265Y94297
X88265Y89852
X88265Y85408
X88265Y80963
X88265Y76518
X88265Y72073
X88265Y67628
X88265Y63182
X88265Y58737
X88265Y54292
X88265Y49847
X91122Y45085
X91122Y94297
X91122Y89852
X91122Y85408
X91122Y80963
X91122Y76518
X75248Y73025
X91122Y67628
X91122Y63182
X91122Y58737
X91122Y54292
X91122Y49847
X63182Y27622
X79693Y27622
X96837Y11430
X97671Y45085
X95567Y48260
X95567Y61912
X87630Y35560
X81280Y45720
X80963Y57467
X86995Y2540
X89852Y5715
X96202Y52705
X73343Y3651
X73343Y36195
X73343Y39370
X72708Y48577
X85725Y14922
X86678Y12700
X86360Y9843
X86360Y7937
X75248Y11112
X75248Y16510
X54292Y1369
X39053Y6032
X45402Y16510
X46355Y1369
X83820Y97472
X86678Y45720
X86678Y93027
X89535Y45720
X89535Y88582
X94615Y28892
X94615Y40958
X92710Y40958
X92392Y84138
X95250Y25400
X95250Y41593
X93027Y42228
X93027Y79693
X95567Y21907
X95885Y42545
X93662Y44132
X93662Y75248
X96202Y18415
X96202Y43498
X94297Y45085
X94297Y70803
X96520Y14922
X96837Y44450
X94932Y47307
X94932Y66358
X3810Y46672
X3810Y51117
X3810Y55562
X3810Y60007
X3810Y64452
X3810Y68898
X3810Y73343
X3810Y77788
X3810Y82233
X3810Y86678
X6667Y95250
X6667Y90805
X6667Y86360
X6667Y81915
X6667Y77470
X6667Y73025
X91122Y72073
M30